<?xml version="1.0" encoding="UTF-8"?>
<!DOCTYPE svg PUBLIC "-//W3C//DTD SVG 1.1//EN" "http://www.w3.org/Graphics/SVG/1.1/DTD/svg11.dtd">
<svg xmlns="http://www.w3.org/2000/svg" version="1.1" width="534px" height="534px" style="shape-rendering:geometricPrecision; text-rendering:geometricPrecision; image-rendering:optimizeQuality; fill-rule:evenodd; clip-rule:evenodd" xmlns:xlink="http://www.w3.org/1999/xlink">
<g><path style="opacity:0.399" fill="#b8ced4" d="M 306.5,125.5 C 305.167,125.5 303.833,125.5 302.5,125.5C 270.56,120.576 238.56,120.243 206.5,124.5C 209.554,97.6025 223.554,78.7692 248.5,68C 256.328,65.0572 264.328,62.7239 272.5,61C 292.743,58.135 313.077,56.135 333.5,55C 347.966,54.8721 354.133,47.7054 352,33.5C 350,29.5 348,25.5 346,21.5C 344.073,13.9469 346.906,9.94694 354.5,9.5C 365.854,11.6072 374.687,17.6072 381,27.5C 402.517,65.6181 393.017,92.7848 352.5,109C 336.835,113.905 321.502,119.405 306.5,125.5 Z"/></g>
<g><path style="opacity:1" fill="#d0d8da" d="M 302.5,125.5 C 288.92,130.411 277.92,138.745 269.5,150.5C 250.015,149.853 230.681,150.853 211.5,153.5C 208.003,144.187 206.337,134.521 206.5,124.5C 238.56,120.243 270.56,120.576 302.5,125.5 Z"/></g>
<g><path style="opacity:0.997" fill="#dfdfdf" d="M 206.5,124.5 C 206.337,134.521 208.003,144.187 211.5,153.5C 209.901,153.232 208.568,153.566 207.5,154.5C 181.32,157.616 156.653,165.449 133.5,178C 123.078,184.091 114.245,191.925 107,201.5C 98.1601,219.463 101.66,234.63 117.5,247C 132.474,257.32 148.808,264.653 166.5,269C 202.672,277.834 239.339,280.834 276.5,278C 305.652,275.129 333.319,267.129 359.5,254C 372.47,247.032 381.97,236.865 388,223.5C 389.055,208.768 383.888,196.601 372.5,187C 351.284,170.398 327.284,159.732 300.5,155C 290.825,153.784 281.158,152.618 271.5,151.5C 271.158,150.662 270.492,150.328 269.5,150.5C 277.92,138.745 288.92,130.411 302.5,125.5C 303.833,125.5 305.167,125.5 306.5,125.5C 332.842,130.01 357.175,139.51 379.5,154C 391.753,162.919 401.92,173.752 410,186.5C 411.881,190.307 413.047,194.307 413.5,198.5C 428.504,198.333 443.504,198.5 458.5,199C 505.553,208.617 523.72,236.784 513,283.5C 504.941,300.226 492.774,313.059 476.5,322C 455.488,332.704 433.154,337.87 409.5,337.5C 406.223,337.216 403.057,337.549 400,338.5C 396.386,359.707 388.553,379.041 376.5,396.5C 355.244,421.813 328.244,437.98 295.5,445C 261.489,452.265 227.489,452.265 193.5,445C 161.835,437.681 135.835,421.514 115.5,396.5C 103.901,381.633 95.7341,364.966 91,346.5C 87.933,332.073 85.0997,317.74 82.5,303.5C 77.8071,269.992 75.6404,236.326 76,202.5C 77.3391,194.488 80.3391,187.155 85,180.5C 98.287,164.552 114.454,152.385 133.5,144C 156.831,133.723 181.164,127.223 206.5,124.5 Z M 470.5,249.5 C 476.606,262.868 473.606,274.035 461.5,283C 456.615,286.297 451.282,288.631 445.5,290C 432.541,292.937 419.541,295.437 406.5,297.5C 409.056,278.489 411.39,259.489 413.5,240.5C 429.31,238.721 444.977,239.554 460.5,243C 464.411,244.444 467.744,246.611 470.5,249.5 Z"/></g>
<g><path style="opacity:1" fill="#8d817d" d="M 269.5,150.5 C 270.492,150.328 271.158,150.662 271.5,151.5C 270.325,151.281 269.325,151.614 268.5,152.5C 266.391,156.604 265.058,160.937 264.5,165.5C 248.798,165.213 233.131,165.546 217.5,166.5C 217.167,166.5 216.833,166.5 216.5,166.5C 215.013,162.855 213.513,159.188 212,155.5C 210.644,154.62 209.144,154.286 207.5,154.5C 208.568,153.566 209.901,153.232 211.5,153.5C 230.681,150.853 250.015,149.853 269.5,150.5 Z"/></g>
<g><path style="opacity:1" fill="#6d4c41" d="M 271.5,151.5 C 281.158,152.618 290.825,153.784 300.5,155C 327.284,159.732 351.284,170.398 372.5,187C 383.888,196.601 389.055,208.768 388,223.5C 381.97,236.865 372.47,247.032 359.5,254C 333.319,267.129 305.652,275.129 276.5,278C 239.339,280.834 202.672,277.834 166.5,269C 148.808,264.653 132.474,257.32 117.5,247C 101.66,234.63 98.1601,219.463 107,201.5C 114.245,191.925 123.078,184.091 133.5,178C 156.653,165.449 181.32,157.616 207.5,154.5C 209.144,154.286 210.644,154.62 212,155.5C 213.513,159.188 215.013,162.855 216.5,166.5C 188.749,168.103 162.749,175.603 138.5,189C 131.333,193.5 125.5,199.333 121,206.5C 118.899,217.129 123.066,223.962 133.5,227C 146.388,231.968 159.055,231.635 171.5,226C 173,224.5 174.5,223 176,221.5C 176.62,216.646 176.453,211.813 175.5,207C 175.91,201.918 178.577,198.584 183.5,197C 191.929,194.841 200.262,195.174 208.5,198C 222.049,202.774 235.382,208.107 248.5,214C 254.494,216.207 260.66,217.707 267,218.5C 272,217.838 276.333,215.838 280,212.5C 280.958,210.801 281.458,208.967 281.5,207C 280.156,202.523 279.323,198.023 279,193.5C 280.935,191.898 283.101,190.731 285.5,190C 295.715,188.856 305.715,189.856 315.5,193C 330.643,198.741 345.643,204.741 360.5,211C 371.141,212.247 373.307,208.414 367,199.5C 359.925,192.433 351.759,186.933 342.5,183C 317.642,172.261 291.642,166.427 264.5,165.5C 265.058,160.937 266.391,156.604 268.5,152.5C 269.325,151.614 270.325,151.281 271.5,151.5 Z"/></g>
<g><path style="opacity:1" fill="#b5a89a" d="M 264.5,165.5 C 262.965,176.404 261.799,187.404 261,198.5C 259.88,201.804 257.546,203.47 254,203.5C 245.469,201.635 238.469,197.302 233,190.5C 226.566,183.294 221.399,175.294 217.5,166.5C 233.131,165.546 248.798,165.213 264.5,165.5 Z"/></g>
<g><path style="opacity:1" fill="#b48f74" d="M 264.5,165.5 C 291.642,166.427 317.642,172.261 342.5,183C 351.759,186.933 359.925,192.433 367,199.5C 373.307,208.414 371.141,212.247 360.5,211C 345.643,204.741 330.643,198.741 315.5,193C 305.715,189.856 295.715,188.856 285.5,190C 283.101,190.731 280.935,191.898 279,193.5C 279.323,198.023 280.156,202.523 281.5,207C 281.458,208.967 280.958,210.801 280,212.5C 276.333,215.838 272,217.838 267,218.5C 260.66,217.707 254.494,216.207 248.5,214C 235.382,208.107 222.049,202.774 208.5,198C 200.262,195.174 191.929,194.841 183.5,197C 178.577,198.584 175.91,201.918 175.5,207C 176.453,211.813 176.62,216.646 176,221.5C 174.5,223 173,224.5 171.5,226C 159.055,231.635 146.388,231.968 133.5,227C 123.066,223.962 118.899,217.129 121,206.5C 125.5,199.333 131.333,193.5 138.5,189C 162.749,175.603 188.749,168.103 216.5,166.5C 216.833,166.5 217.167,166.5 217.5,166.5C 221.399,175.294 226.566,183.294 233,190.5C 238.469,197.302 245.469,201.635 254,203.5C 257.546,203.47 259.88,201.804 261,198.5C 261.799,187.404 262.965,176.404 264.5,165.5 Z"/></g>
<g><path style="opacity:1" fill="#b38e73" d="M 304.5,206.5 C 320.148,206.323 334.814,210.156 348.5,218C 351.832,220.489 354.166,223.656 355.5,227.5C 354.5,231.833 351.833,234.5 347.5,235.5C 342.298,234.233 337.298,232.399 332.5,230C 328.833,229.333 325.167,229.333 321.5,230C 317.854,233.316 314.521,236.982 311.5,241C 299.843,248.202 287.177,250.536 273.5,248C 257.007,245.877 241.007,241.877 225.5,236C 217.876,236.631 210.21,236.965 202.5,237C 194.951,234.07 192.784,228.903 196,221.5C 199.652,217.247 204.318,215.247 210,215.5C 215.21,216.063 220.376,216.896 225.5,218C 238.896,222.224 252.396,226.057 266,229.5C 276.392,232.663 286.559,232.163 296.5,228C 297.667,226.833 298.833,225.667 300,224.5C 301.224,219.614 301.891,214.614 302,209.5C 303.045,208.627 303.878,207.627 304.5,206.5 Z"/></g>
<g><path style="opacity:0.995" fill="#6da6ad" d="M 487.5,267.5 C 484.019,263.237 480.519,258.903 477,254.5C 475.223,252.21 473.056,250.543 470.5,249.5C 467.744,246.611 464.411,244.444 460.5,243C 444.977,239.554 429.31,238.721 413.5,240.5C 412.669,236.912 412.669,233.245 413.5,229.5C 429.248,227.781 444.915,228.281 460.5,231C 471.817,233.397 480.317,239.564 486,249.5C 488.45,255.375 488.95,261.375 487.5,267.5 Z"/></g>
<g><path style="opacity:0.995" fill="#bbced3" d="M 470.5,249.5 C 473.056,250.543 475.223,252.21 477,254.5C 480.519,258.903 484.019,263.237 487.5,267.5C 483.13,285.71 472.13,298.21 454.5,305C 438.178,309.574 421.511,312.074 404.5,312.5C 404.98,307.47 405.647,302.47 406.5,297.5C 419.541,295.437 432.541,292.937 445.5,290C 451.282,288.631 456.615,286.297 461.5,283C 473.606,274.035 476.606,262.868 470.5,249.5 Z"/></g>
<g><path style="opacity:1" fill="#fefefe" d="M 99.5,261.5 C 103.599,261.367 107.266,262.533 110.5,265C 117.603,270.381 123.436,276.881 128,284.5C 127.311,315.605 130.645,346.271 138,376.5C 138.806,382.084 138.639,387.584 137.5,393C 134.697,393.755 132.03,393.422 129.5,392C 125.667,389.5 122.5,386.333 120,382.5C 99.1789,346.086 91.5123,307.086 97,265.5C 97.6622,264.016 98.4955,262.683 99.5,261.5 Z"/></g>
<g><path style="opacity:1" fill="#472f13" d="M 198.5,282.5 C 203.267,282.191 207.934,282.691 212.5,284C 215.993,285.478 216.326,287.478 213.5,290C 201.038,289.614 189.705,292.947 179.5,300C 174.917,300.934 173.417,299.1 175,294.5C 181.592,287.924 189.426,283.924 198.5,282.5 Z"/></g>
<g><path style="opacity:1" fill="#483014" d="M 281.5,282.5 C 294.741,281.635 306.241,285.635 316,294.5C 316.981,297.557 315.981,299.557 313,300.5C 301.782,293.819 289.615,290.152 276.5,289.5C 275.572,288.232 275.405,286.899 276,285.5C 277.719,284.131 279.552,283.131 281.5,282.5 Z"/></g>
<g><path style="opacity:0.996" fill="#bbced3" d="M 82.5,303.5 C 85.0997,317.74 87.933,332.073 91,346.5C 95.7341,364.966 103.901,381.633 115.5,396.5C 114.402,397.601 114.235,398.934 115,400.5C 116.565,404.4 118.565,408.066 121,411.5C 130.065,422.066 139.898,431.732 150.5,440.5C 129.088,427.253 112.255,409.587 100,387.5C 95.2642,378.699 91.0975,369.699 87.5,360.5C 69.6153,366.019 54.4486,375.685 42,389.5C 33.2269,403.611 33.5602,417.611 43,431.5C 59.2639,451.078 79.4306,465.244 103.5,474C 138.037,486.574 173.704,493.908 210.5,496C 261.696,500.317 312.029,495.651 361.5,482C 395.058,473.477 424.224,457.311 449,433.5C 474.248,404.819 469.081,383.652 433.5,370C 423.28,366.695 412.946,363.862 402.5,361.5C 390.594,407.071 362.594,438.071 318.5,454.5C 338.383,445.461 354.883,432.127 368,414.5C 372.082,409.088 374.915,403.088 376.5,396.5C 388.553,379.041 396.386,359.707 400,338.5C 403.057,337.549 406.223,337.216 409.5,337.5C 407.819,340.582 407.152,343.915 407.5,347.5C 428.754,350.748 448.087,358.581 465.5,371C 479.548,382.607 485.048,397.44 482,415.5C 479.114,426.605 474.114,436.605 467,445.5C 445.8,467.673 420.633,483.84 391.5,494C 323.069,516.854 253.069,523.521 181.5,514C 142.81,509.103 106.143,497.769 71.5,480C 54.6285,471.134 40.1285,459.301 28,444.5C 10.1016,416.536 13.6016,391.369 38.5,369C 43.1667,365.667 47.8333,362.333 52.5,359C 62.9836,353.423 73.6502,348.423 84.5,344C 83.8392,341.536 83.3392,339.036 83,336.5C 82.5002,325.505 82.3335,314.505 82.5,303.5 Z"/></g>
<g><path style="opacity:1" fill="#452e11" d="M 219.5,317.5 C 227.491,315.66 230.658,318.66 229,326.5C 223.707,331.628 218.54,336.961 213.5,342.5C 220.049,346.696 226.549,351.029 233,355.5C 234.553,363.28 231.386,366.447 223.5,365C 218.017,360.351 212.684,355.518 207.5,350.5C 202.62,355.887 198.287,361.72 194.5,368C 185.871,372.696 182.038,370.196 183,360.5C 188.375,354.958 193.875,349.624 199.5,344.5C 193.706,340.431 187.706,336.597 181.5,333C 176.299,328.912 176.299,324.912 181.5,321C 183.5,320.333 185.5,320.333 187.5,321C 193.686,325.93 199.686,331.097 205.5,336.5C 210.16,330.172 214.826,323.839 219.5,317.5 Z"/></g>
<g><path style="opacity:1" fill="#452e11" d="M 269.5,317.5 C 272.649,317.211 275.649,317.711 278.5,319C 282.48,325.139 286.813,330.972 291.5,336.5C 297.017,331.149 302.684,325.982 308.5,321C 317.81,319.967 320.476,323.634 316.5,332C 309.833,336 303.167,340 296.5,344C 302.62,349.153 308.453,354.653 314,360.5C 315.257,369.127 311.757,371.96 303.5,369C 298.943,362.705 294.277,356.539 289.5,350.5C 284.052,354.445 279.052,358.945 274.5,364C 266.59,367.31 262.756,364.81 263,356.5C 269.61,351.45 276.444,346.783 283.5,342.5C 278.208,337.709 273.041,332.709 268,327.5C 265.729,323.697 266.229,320.363 269.5,317.5 Z"/></g>
<g><path style="opacity:1" fill="#dfdfdf" d="M 150.5,440.5 C 173.933,456.368 199.933,465.201 228.5,467C 254.196,468.485 279.53,466.152 304.5,460C 309.076,457.876 313.743,456.043 318.5,454.5C 362.594,438.071 390.594,407.071 402.5,361.5C 412.946,363.862 423.28,366.695 433.5,370C 469.081,383.652 474.248,404.819 449,433.5C 424.224,457.311 395.058,473.477 361.5,482C 312.029,495.651 261.696,500.317 210.5,496C 173.704,493.908 138.037,486.574 103.5,474C 79.4306,465.244 59.2639,451.078 43,431.5C 33.5602,417.611 33.2269,403.611 42,389.5C 54.4486,375.685 69.6153,366.019 87.5,360.5C 91.0975,369.699 95.2642,378.699 100,387.5C 112.255,409.587 129.088,427.253 150.5,440.5 Z"/></g>
<g><path style="opacity:1" fill="#fefefe" d="M 403.5,375.5 C 418.866,374.102 430.7,379.768 439,392.5C 443.384,411.228 436.551,424.062 418.5,431C 410.663,434.44 402.663,435.107 394.5,433C 393.483,431.951 393.316,430.784 394,429.5C 398.646,424.523 403.646,419.856 409,415.5C 419.118,401.766 417.451,389.766 404,379.5C 403.51,378.207 403.343,376.873 403.5,375.5 Z"/></g>
<g><path style="opacity:1" fill="#fefefe" d="M 72.5,380.5 C 77.7344,379.835 82.5678,380.835 87,383.5C 87.6667,384.833 87.6667,386.167 87,387.5C 84.0825,391.666 81.4159,395.999 79,400.5C 77.7385,408.457 79.7385,415.457 85,421.5C 90.9512,428.458 97.7845,434.291 105.5,439C 120.587,446.141 135.587,453.474 150.5,461C 152.919,462.509 153.919,464.675 153.5,467.5C 142.294,468.789 131.294,467.623 120.5,464C 113.335,462.056 106.335,459.723 99.5,457C 82.6567,450.66 67.8233,441.16 55,428.5C 45.0016,412.824 46.8349,398.657 60.5,386C 64.284,383.471 68.284,381.638 72.5,380.5 Z"/></g>
<g><path style="opacity:1" fill="#432c0e" d="M 235.5,381.5 C 255.115,378.226 269.615,385.226 279,402.5C 282.154,412.372 279.654,420.539 271.5,427C 254.981,435.221 238.314,435.554 221.5,428C 210.199,420.426 207.699,410.592 214,398.5C 219.316,390.335 226.483,384.669 235.5,381.5 Z"/></g>
<g><path style="opacity:1" fill="#6ca5ac" d="M 115.5,396.5 C 135.835,421.514 161.835,437.681 193.5,445C 227.489,452.265 261.489,452.265 295.5,445C 328.244,437.98 355.244,421.813 376.5,396.5C 374.915,403.088 372.082,409.088 368,414.5C 354.883,432.127 338.383,445.461 318.5,454.5C 313.743,456.043 309.076,457.876 304.5,460C 279.53,466.152 254.196,468.485 228.5,467C 199.933,465.201 173.933,456.368 150.5,440.5C 139.898,431.732 130.065,422.066 121,411.5C 118.565,408.066 116.565,404.4 115,400.5C 114.235,398.934 114.402,397.601 115.5,396.5 Z"/></g>
</svg>
