<?xml version="1.0" encoding="UTF-8"?>
<!DOCTYPE svg PUBLIC "-//W3C//DTD SVG 1.1//EN" "http://www.w3.org/Graphics/SVG/1.1/DTD/svg11.dtd">
<svg xmlns="http://www.w3.org/2000/svg" version="1.1" width="534px" height="534px" style="shape-rendering:geometricPrecision; text-rendering:geometricPrecision; image-rendering:optimizeQuality; fill-rule:evenodd; clip-rule:evenodd" xmlns:xlink="http://www.w3.org/1999/xlink">
<g><path style="opacity:0.459" fill="#fe5301" d="M 386.5,84.5 C 381.197,64.5764 370.363,48.2431 354,35.5C 353.802,37.3817 353.302,39.0484 352.5,40.5C 352.078,33.6371 349.911,27.3038 346,21.5C 344.073,13.9469 346.906,9.94694 354.5,9.5C 364.151,10.958 371.984,15.6246 378,23.5C 392.944,42.272 395.777,62.6053 386.5,84.5 Z"/></g>
<g><path style="opacity:0.459" fill="#fe6e10" d="M 386.5,84.5 C 385.136,86.1911 383.803,87.8577 382.5,89.5C 381.504,89.5858 380.671,89.2524 380,88.5C 375.672,70.162 366.505,54.8287 352.5,42.5C 352.5,41.8333 352.5,41.1667 352.5,40.5C 353.302,39.0484 353.802,37.3817 354,35.5C 370.363,48.2431 381.197,64.5764 386.5,84.5 Z"/></g>
<g><path style="opacity:0.459" fill="#fd801a" d="M 352.5,42.5 C 366.505,54.8287 375.672,70.162 380,88.5C 380.671,89.2524 381.504,89.5858 382.5,89.5C 380.451,92.5497 377.784,94.883 374.5,96.5C 372.227,78.2863 364.393,62.9529 351,50.5C 350.517,49.552 350.351,48.552 350.5,47.5C 350.893,45.7162 351.559,44.0495 352.5,42.5 Z"/></g>
<g><path style="opacity:0.459" fill="#fc8e22" d="M 350.5,47.5 C 350.351,48.552 350.517,49.552 351,50.5C 364.393,62.9529 372.227,78.2863 374.5,96.5C 374.027,97.9063 373.027,98.573 371.5,98.5C 368.925,88.955 365.425,79.6216 361,70.5C 356.694,63.7027 351.86,57.3694 346.5,51.5C 348.194,50.4726 349.527,49.1392 350.5,47.5 Z"/></g>
<g><path style="opacity:0.459" fill="#fb9827" d="M 346.5,51.5 C 351.86,57.3694 356.694,63.7027 361,70.5C 365.425,79.6216 368.925,88.955 371.5,98.5C 370.055,100.063 368.389,101.396 366.5,102.5C 363.738,83.4788 355.071,67.6455 340.5,55C 341.056,54.6174 341.389,54.1174 341.5,53.5C 343.167,52.8333 344.833,52.1667 346.5,51.5 Z"/></g>
<g><path style="opacity:0.459" fill="#fba32e" d="M 341.5,53.5 C 341.389,54.1174 341.056,54.6174 340.5,55C 355.071,67.6455 363.738,83.4788 366.5,102.5C 363.833,103.833 361.167,105.167 358.5,106.5C 358.575,93.2266 354.742,81.2266 347,70.5C 341.938,65.2694 336.771,60.2694 331.5,55.5C 334.833,54.8333 338.167,54.1667 341.5,53.5 Z"/></g>
<g><path style="opacity:0.459" fill="#fbaf34" d="M 331.5,55.5 C 336.771,60.2694 341.938,65.2694 347,70.5C 354.742,81.2266 358.575,93.2266 358.5,106.5C 355.833,107.5 353.167,108.5 350.5,109.5C 349.293,82.9839 336.293,65.3172 311.5,56.5C 318.174,56.2871 324.841,55.9538 331.5,55.5 Z"/></g>
<g><path style="opacity:0.458" fill="#fab839" d="M 311.5,56.5 C 336.293,65.3172 349.293,82.9839 350.5,109.5C 348.579,110.363 346.579,111.029 344.5,111.5C 344.064,87.7721 332.73,71.9388 310.5,64C 282.2,59.7231 264.034,71.2231 256,98.5C 255.132,106.275 255.632,113.942 257.5,121.5C 255.167,121.5 252.833,121.5 250.5,121.5C 244.8,94.9089 253.466,74.5756 276.5,60.5C 288.087,58.5828 299.754,57.2495 311.5,56.5 Z"/></g>
<g><path style="opacity:0.459" fill="#fbaf34" d="M 276.5,60.5 C 253.466,74.5756 244.8,94.9089 250.5,121.5C 250.167,121.5 249.833,121.5 249.5,121.5C 246.833,121.5 244.167,121.5 241.5,121.5C 237.193,101.062 241.527,82.7291 254.5,66.5C 261.42,63.3755 268.753,61.3755 276.5,60.5 Z"/></g>
<g><path style="opacity:0.459" fill="#fabf3d" d="M 344.5,111.5 C 340.784,113.405 336.784,114.739 332.5,115.5C 334.733,90.6014 323.566,76.268 299,72.5C 276.403,75.7592 265.403,88.7592 266,111.5C 266.943,114.824 267.776,118.157 268.5,121.5C 264.833,121.5 261.167,121.5 257.5,121.5C 255.632,113.942 255.132,106.275 256,98.5C 264.034,71.2231 282.2,59.7231 310.5,64C 332.73,71.9388 344.064,87.7721 344.5,111.5 Z"/></g>
<g><path style="opacity:0.459" fill="#fba32d" d="M 254.5,66.5 C 241.527,82.7291 237.193,101.062 241.5,121.5C 239.167,121.5 236.833,121.5 234.5,121.5C 231.184,103.082 234.517,86.0824 244.5,70.5C 247.37,68.2057 250.703,66.8723 254.5,66.5 Z"/></g>
<g><path style="opacity:0.459" fill="#fb9827" d="M 244.5,70.5 C 234.517,86.0824 231.184,103.082 234.5,121.5C 232.833,121.5 231.167,121.5 229.5,121.5C 226.587,106.962 227.921,92.7952 233.5,79C 233.43,78.2352 233.097,77.7352 232.5,77.5C 235.835,74.1611 239.835,71.8278 244.5,70.5 Z"/></g>
<g><path style="opacity:0.459" fill="#fac541" d="M 332.5,115.5 C 323.609,118.241 314.943,121.575 306.5,125.5C 305.167,125.5 303.833,125.5 302.5,125.5C 291.417,123.226 280.084,121.892 268.5,121.5C 267.776,118.157 266.943,114.824 266,111.5C 265.403,88.7592 276.403,75.7592 299,72.5C 323.566,76.268 334.733,90.6014 332.5,115.5 Z"/></g>
<g><path style="opacity:0.459" fill="#fc8b20" d="M 232.5,77.5 C 233.097,77.7352 233.43,78.2352 233.5,79C 227.921,92.7952 226.587,106.962 229.5,121.5C 228.508,121.328 227.842,121.662 227.5,122.5C 226.833,122.5 226.167,122.5 225.5,122.5C 225.167,122.5 224.833,122.5 224.5,122.5C 222.728,109.027 223.395,95.694 226.5,82.5C 227.891,80.1097 229.891,78.4431 232.5,77.5 Z"/></g>
<g><path style="opacity:0.459" fill="#fc7f19" d="M 226.5,82.5 C 223.395,95.694 222.728,109.027 224.5,122.5C 222.5,122.5 220.5,122.5 218.5,122.5C 216.253,112.946 215.919,103.279 217.5,93.5C 219.372,88.9568 222.372,85.2901 226.5,82.5 Z"/></g>
<g><path style="opacity:0.459" fill="#fd680d" d="M 217.5,93.5 C 215.919,103.279 216.253,112.946 218.5,122.5C 218.158,123.338 217.492,123.672 216.5,123.5C 213.061,123.253 209.728,123.586 206.5,124.5C 206.824,112.853 210.491,102.52 217.5,93.5 Z"/></g>
<g><path style="opacity:1" fill="#e87120" d="M 227.5,122.5 C 227.842,121.662 228.508,121.328 229.5,121.5C 231.167,121.5 232.833,121.5 234.5,121.5C 236.833,121.5 239.167,121.5 241.5,121.5C 244.167,121.5 246.833,121.5 249.5,121.5C 252.732,133.302 259.399,142.635 269.5,149.5C 269.5,149.833 269.5,150.167 269.5,150.5C 262.167,150.5 254.833,150.5 247.5,150.5C 241.432,142.364 236.932,133.364 234,123.5C 231.959,122.577 229.792,122.244 227.5,122.5 Z"/></g>
<g><path style="opacity:1" fill="#e9661a" d="M 225.5,122.5 C 226.167,122.5 226.833,122.5 227.5,122.5C 229.792,122.244 231.959,122.577 234,123.5C 236.932,133.364 241.432,142.364 247.5,150.5C 244.167,150.5 240.833,150.5 237.5,150.5C 231.37,142.12 227.37,132.786 225.5,122.5 Z"/></g>
<g><path style="opacity:1" fill="#e87d26" d="M 249.5,121.5 C 249.833,121.5 250.167,121.5 250.5,121.5C 252.833,121.5 255.167,121.5 257.5,121.5C 261.167,121.5 264.833,121.5 268.5,121.5C 280.084,121.892 291.417,123.226 302.5,125.5C 289.257,130.408 278.257,138.408 269.5,149.5C 259.399,142.635 252.732,133.302 249.5,121.5 Z"/></g>
<g><path style="opacity:1" fill="#e95c14" d="M 218.5,122.5 C 220.5,122.5 222.5,122.5 224.5,122.5C 224.833,122.5 225.167,122.5 225.5,122.5C 227.37,132.786 231.37,142.12 237.5,150.5C 234.236,151.324 230.902,151.658 227.5,151.5C 227.167,151.5 226.833,151.5 226.5,151.5C 221.778,142.669 218.445,133.336 216.5,123.5C 217.492,123.672 218.158,123.338 218.5,122.5 Z"/></g>
<g><path style="opacity:0.998" fill="#d74113" d="M 206.5,124.5 C 206.527,134.357 207.861,144.024 210.5,153.5C 178.182,157.326 148.515,168.159 121.5,186C 113.062,192.44 106.896,200.606 103,210.5C 100.568,225.534 105.401,237.701 117.5,247C 132.419,257.289 148.752,264.622 166.5,269C 202.672,277.834 239.339,280.834 276.5,278C 305.633,275.133 333.299,267.133 359.5,254C 396.624,231.196 397.957,206.529 363.5,180C 334.721,162.466 303.388,152.966 269.5,151.5C 269.5,151.167 269.5,150.833 269.5,150.5C 269.5,150.167 269.5,149.833 269.5,149.5C 278.257,138.408 289.257,130.408 302.5,125.5C 303.833,125.5 305.167,125.5 306.5,125.5C 332.842,130.01 357.175,139.51 379.5,154C 391.753,162.919 401.92,173.752 410,186.5C 411.881,190.307 413.047,194.307 413.5,198.5C 428.504,198.333 443.504,198.5 458.5,199C 505.553,208.617 523.72,236.784 513,283.5C 504.941,300.226 492.774,313.059 476.5,322C 468.729,325.885 460.729,329.219 452.5,332C 437.929,335.153 423.263,337.319 408.5,338.5C 405.5,338.5 402.5,338.5 399.5,338.5C 396.529,359.755 388.863,379.089 376.5,396.5C 352.803,424.695 322.47,441.528 285.5,447C 245.491,454.401 206.491,451.068 168.5,437C 147.492,427.819 129.825,414.319 115.5,396.5C 103.929,382.36 95.7623,366.36 91,348.5C 87.6459,333.452 84.8125,318.452 82.5,303.5C 77.8071,269.992 75.6404,236.326 76,202.5C 77.3391,194.488 80.3391,187.155 85,180.5C 98.287,164.552 114.454,152.385 133.5,144C 156.831,133.723 181.164,127.223 206.5,124.5 Z M 470.5,249.5 C 476.606,262.868 473.606,274.035 461.5,283C 456.615,286.297 451.282,288.631 445.5,290C 432.541,292.937 419.541,295.437 406.5,297.5C 409.056,278.489 411.39,259.489 413.5,240.5C 429.31,238.721 444.977,239.554 460.5,243C 464.411,244.444 467.744,246.611 470.5,249.5 Z"/></g>
<g><path style="opacity:1" fill="#e84f0e" d="M 216.5,123.5 C 218.445,133.336 221.778,142.669 226.5,151.5C 221.547,152.411 216.547,153.078 211.5,153.5C 211.167,153.5 210.833,153.5 210.5,153.5C 207.861,144.024 206.527,134.357 206.5,124.5C 209.728,123.586 213.061,123.253 216.5,123.5 Z"/></g>
<g><path style="opacity:1" fill="#9b5314" d="M 237.5,150.5 C 240.833,150.5 244.167,150.5 247.5,150.5C 254.833,150.5 262.167,150.5 269.5,150.5C 269.5,150.833 269.5,151.167 269.5,151.5C 259.828,151.334 250.161,151.5 240.5,152C 244.426,157.429 249.093,161.929 254.5,165.5C 249.833,165.5 245.167,165.5 240.5,165.5C 238.5,165.5 236.5,165.5 234.5,165.5C 231.331,161.491 228.331,157.324 225.5,153C 226.416,152.722 227.082,152.222 227.5,151.5C 230.902,151.658 234.236,151.324 237.5,150.5 Z"/></g>
<g><path style="opacity:1" fill="#965e19" d="M 269.5,151.5 C 267.054,155.835 265.387,160.502 264.5,165.5C 261.167,165.5 257.833,165.5 254.5,165.5C 249.093,161.929 244.426,157.429 240.5,152C 250.161,151.5 259.828,151.334 269.5,151.5 Z"/></g>
<g><path style="opacity:1" fill="#422b0d" d="M 269.5,151.5 C 303.388,152.966 334.721,162.466 363.5,180C 397.957,206.529 396.624,231.196 359.5,254C 333.299,267.133 305.633,275.133 276.5,278C 239.339,280.834 202.672,277.834 166.5,269C 148.752,264.622 132.419,257.289 117.5,247C 105.401,237.701 100.568,225.534 103,210.5C 106.896,200.606 113.062,192.44 121.5,186C 148.515,168.159 178.182,157.326 210.5,153.5C 210.833,153.5 211.167,153.5 211.5,153.5C 212.892,157.949 214.559,162.282 216.5,166.5C 189.558,168.093 164.225,175.26 140.5,188C 134.541,191.902 129.041,196.402 124,201.5C 117.167,213.673 120.333,222.173 133.5,227C 145.527,231.49 157.527,231.49 169.5,227C 174.519,224.793 176.853,220.96 176.5,215.5C 172.856,205.286 176.189,198.786 186.5,196C 195.016,195.363 203.349,196.363 211.5,199C 224.154,203.218 236.487,208.218 248.5,214C 256.615,217.523 264.948,218.523 273.5,217C 278.423,215.416 281.09,212.082 281.5,207C 281.007,203.353 280.007,199.853 278.5,196.5C 279.477,192.99 281.81,190.823 285.5,190C 300.101,188.586 314.101,190.92 327.5,197C 339.417,202.961 351.75,207.794 364.5,211.5C 369.56,211.613 371.394,209.279 370,204.5C 368.439,201.217 366.273,198.383 363.5,196C 346.366,183.604 327.366,175.271 306.5,171C 292.57,168.4 278.57,166.566 264.5,165.5C 265.387,160.502 267.054,155.835 269.5,151.5 Z"/></g>
<g><path style="opacity:1" fill="#983e08" d="M 226.5,151.5 C 226.833,151.5 227.167,151.5 227.5,151.5C 227.082,152.222 226.416,152.722 225.5,153C 228.331,157.324 231.331,161.491 234.5,165.5C 228.839,165.907 223.172,166.24 217.5,166.5C 217.167,166.5 216.833,166.5 216.5,166.5C 214.559,162.282 212.892,157.949 211.5,153.5C 216.547,153.078 221.547,152.411 226.5,151.5 Z"/></g>
<g><path style="opacity:1" fill="#af5024" d="M 234.5,165.5 C 236.5,165.5 238.5,165.5 240.5,165.5C 246.428,172.76 253.761,178.094 262.5,181.5C 262.486,188.278 261.653,194.945 260,201.5C 253.778,204.109 247.944,203.276 242.5,199C 231.308,190.315 222.975,179.482 217.5,166.5C 223.172,166.24 228.839,165.907 234.5,165.5 Z"/></g>
<g><path style="opacity:1" fill="#ae632f" d="M 240.5,165.5 C 245.167,165.5 249.833,165.5 254.5,165.5C 257.833,165.5 261.167,165.5 264.5,165.5C 263.031,170.72 262.364,176.054 262.5,181.5C 253.761,178.094 246.428,172.76 240.5,165.5 Z"/></g>
<g><path style="opacity:1" fill="#6c4a40" d="M 264.5,165.5 C 278.57,166.566 292.57,168.4 306.5,171C 327.366,175.271 346.366,183.604 363.5,196C 366.273,198.383 368.439,201.217 370,204.5C 371.394,209.279 369.56,211.613 364.5,211.5C 351.75,207.794 339.417,202.961 327.5,197C 314.101,190.92 300.101,188.586 285.5,190C 281.81,190.823 279.477,192.99 278.5,196.5C 280.007,199.853 281.007,203.353 281.5,207C 281.09,212.082 278.423,215.416 273.5,217C 264.948,218.523 256.615,217.523 248.5,214C 236.487,208.218 224.154,203.218 211.5,199C 203.349,196.363 195.016,195.363 186.5,196C 176.189,198.786 172.856,205.286 176.5,215.5C 176.853,220.96 174.519,224.793 169.5,227C 157.527,231.49 145.527,231.49 133.5,227C 120.333,222.173 117.167,213.673 124,201.5C 129.041,196.402 134.541,191.902 140.5,188C 164.225,175.26 189.558,168.093 216.5,166.5C 216.833,166.5 217.167,166.5 217.5,166.5C 222.975,179.482 231.308,190.315 242.5,199C 247.944,203.276 253.778,204.109 260,201.5C 261.653,194.945 262.486,188.278 262.5,181.5C 262.364,176.054 263.031,170.72 264.5,165.5 Z"/></g>
<g><path style="opacity:1" fill="#6c4a40" d="M 304.5,206.5 C 320.289,205.947 334.956,209.781 348.5,218C 352.019,220.324 354.019,223.491 354.5,227.5C 354.425,232.408 351.925,234.741 347,234.5C 341.393,233.45 335.893,231.95 330.5,230C 327.167,229.333 323.833,229.333 320.5,230C 309.086,246.371 293.419,252.371 273.5,248C 256.762,245.652 240.429,241.652 224.5,236C 217.516,236.494 210.516,236.828 203.5,237C 193.886,233.124 192.219,227.124 198.5,219C 202.325,216.943 206.492,216.11 211,216.5C 214.167,216.667 217.333,216.833 220.5,217C 236.171,221.335 251.838,225.669 267.5,230C 277.827,232.62 287.827,231.787 297.5,227.5C 298.333,226.5 299.167,225.5 300,224.5C 301.224,219.614 301.891,214.614 302,209.5C 303.045,208.627 303.878,207.627 304.5,206.5 Z"/></g>
<g><path style="opacity:0.998" fill="#b91a25" d="M 487.5,267.5 C 482.488,260.823 476.821,254.823 470.5,249.5C 467.744,246.611 464.411,244.444 460.5,243C 444.977,239.554 429.31,238.721 413.5,240.5C 412.665,237.006 412.665,233.34 413.5,229.5C 426.148,228.459 438.815,228.292 451.5,229C 460.42,230.417 468.753,233.417 476.5,238C 486.04,245.668 489.706,255.501 487.5,267.5 Z"/></g>
<g><path style="opacity:0.988" fill="#cc3332" d="M 470.5,249.5 C 476.821,254.823 482.488,260.823 487.5,267.5C 483.936,282.23 475.602,293.397 462.5,301C 455.58,304.793 448.246,307.46 440.5,309C 428.57,310.905 416.57,312.072 404.5,312.5C 404.608,307.29 405.275,302.29 406.5,297.5C 419.541,295.437 432.541,292.937 445.5,290C 451.282,288.631 456.615,286.297 461.5,283C 473.606,274.035 476.606,262.868 470.5,249.5 Z"/></g>
<g><path style="opacity:1" fill="#ea7a36" d="M 98.5,261.5 C 100.857,261.337 103.19,261.503 105.5,262C 115,267.5 122.5,275 128,284.5C 129.271,300.113 129.937,315.78 130,331.5C 132.28,346.568 134.947,361.568 138,376.5C 138.806,382.084 138.639,387.584 137.5,393C 130.92,393.628 125.753,391.128 122,385.5C 111.565,369.541 104.231,352.208 100,333.5C 95.9831,314.018 94.3164,294.351 95,274.5C 95.1131,269.843 96.2797,265.51 98.5,261.5 Z"/></g>
<g><path style="opacity:0.987" fill="#cc3332" d="M 82.5,303.5 C 84.8125,318.452 87.6459,333.452 91,348.5C 95.7623,366.36 103.929,382.36 115.5,396.5C 114.402,397.601 114.235,398.934 115,400.5C 117.27,405.098 119.937,409.431 123,413.5C 130.699,422.365 138.866,430.698 147.5,438.5C 127.374,425.54 111.541,408.54 100,387.5C 95.2815,378.731 91.1148,369.731 87.5,360.5C 75.4459,365.026 64.1126,370.86 53.5,378C 32.4152,394.792 29.9152,413.958 46,435.5C 59.6168,450.561 75.7835,462.061 94.5,470C 130.811,484.494 168.478,493.161 207.5,496C 237.183,496.842 266.849,496.509 296.5,495C 331.489,491.503 365.155,482.836 397.5,469C 420.963,458.525 440.796,443.359 457,423.5C 462.838,414.996 465.171,405.663 464,395.5C 459.889,386.39 453.389,379.556 444.5,375C 431.072,368.645 417.072,364.145 402.5,361.5C 390.609,407.057 362.609,438.057 318.5,454.5C 338.022,445.826 354.188,432.826 367,415.5C 371.232,409.702 374.399,403.369 376.5,396.5C 388.863,379.089 396.529,359.755 399.5,338.5C 402.5,338.5 405.5,338.5 408.5,338.5C 407.701,341.43 407.368,344.43 407.5,347.5C 428.754,350.748 448.087,358.581 465.5,371C 479.548,382.607 485.048,397.44 482,415.5C 479.114,426.605 474.114,436.605 467,445.5C 445.8,467.673 420.633,483.84 391.5,494C 323.069,516.854 253.069,523.521 181.5,514C 142.81,509.103 106.143,497.769 71.5,480C 54.6285,471.134 40.1285,459.301 28,444.5C 10.1016,416.536 13.6016,391.369 38.5,369C 43.1667,365.667 47.8333,362.333 52.5,359C 62.9836,353.423 73.6502,348.423 84.5,344C 83.8392,341.536 83.3392,339.036 83,336.5C 82.5002,325.505 82.3335,314.505 82.5,303.5 Z"/></g>
<g><path style="opacity:1" fill="#442b0d" d="M 194.5,336.5 C 200.559,336.463 206.225,337.963 211.5,341C 219.946,345.639 227.779,351.139 235,357.5C 236.46,361.798 235.126,364.798 231,366.5C 230.409,379.716 223.576,385.216 210.5,383C 203.072,377.722 200.572,370.555 203,361.5C 204.061,358.438 205.894,355.938 208.5,354C 203.687,351.199 198.853,348.366 194,345.5C 192.029,342.384 192.195,339.384 194.5,336.5 Z"/></g>
<g><path style="opacity:1" fill="#442b0d" d="M 290.5,336.5 C 293.187,336.336 295.854,336.503 298.5,337C 302.072,339.626 302.405,342.626 299.5,346C 294.508,348.161 289.841,350.828 285.5,354C 292.489,361.852 293.323,370.352 288,379.5C 280.396,385.073 273.063,384.74 266,378.5C 264.331,374.654 263.164,370.654 262.5,366.5C 258.831,364.572 257.664,361.572 259,357.5C 268.447,348.864 278.947,341.864 290.5,336.5 Z"/></g>
<g><path style="opacity:1" fill="#845c21" d="M 211.5,355.5 C 217.527,356.004 219.027,359.004 216,364.5C 211.791,367.596 208.958,366.596 207.5,361.5C 208.432,359.235 209.765,357.235 211.5,355.5 Z"/></g>
<g><path style="opacity:1" fill="#845c21" d="M 272.5,355.5 C 278.527,356.004 280.027,359.004 277,364.5C 272.791,367.596 269.958,366.596 268.5,361.5C 269.432,359.235 270.765,357.235 272.5,355.5 Z"/></g>
<g><path style="opacity:1" fill="#d74213" d="M 147.5,438.5 C 157.715,446.446 169.048,452.612 181.5,457C 220.736,469.478 260.403,470.811 300.5,461C 306.724,459.095 312.724,456.929 318.5,454.5C 362.609,438.057 390.609,407.057 402.5,361.5C 417.072,364.145 431.072,368.645 444.5,375C 453.389,379.556 459.889,386.39 464,395.5C 465.171,405.663 462.838,414.996 457,423.5C 440.796,443.359 420.963,458.525 397.5,469C 365.155,482.836 331.489,491.503 296.5,495C 266.849,496.509 237.183,496.842 207.5,496C 168.478,493.161 130.811,484.494 94.5,470C 75.7835,462.061 59.6168,450.561 46,435.5C 29.9152,413.958 32.4152,394.792 53.5,378C 64.1126,370.86 75.4459,365.026 87.5,360.5C 91.1148,369.731 95.2815,378.731 100,387.5C 111.541,408.54 127.374,425.54 147.5,438.5 Z"/></g>
<g><path style="opacity:1" fill="#ea7a36" d="M 404.5,375.5 C 419.458,374.396 430.958,380.063 439,392.5C 443.313,408.706 438.146,420.873 423.5,429C 415.055,433.695 406.055,435.362 396.5,434C 393.139,432.574 392.639,430.407 395,427.5C 399.333,423.833 403.667,420.167 408,416.5C 419.233,402.705 417.9,390.371 404,379.5C 403.421,378.072 403.588,376.738 404.5,375.5 Z"/></g>
<g><path style="opacity:1" fill="#ea7a36" d="M 72.5,380.5 C 77.7344,379.835 82.5678,380.835 87,383.5C 87.6667,384.833 87.6667,386.167 87,387.5C 84.0825,391.666 81.4159,395.999 79,400.5C 77.9235,408.936 80.2568,416.27 86,422.5C 93.3023,430.141 101.469,436.641 110.5,442C 123.515,447.791 136.515,453.791 149.5,460C 150.667,461.167 151.833,462.333 153,463.5C 153.781,464.944 153.614,466.277 152.5,467.5C 119.656,466.829 89.9896,456.663 63.5,437C 56.8277,431.803 51.9944,425.303 49,417.5C 46.2656,398.277 54.099,385.943 72.5,380.5 Z"/></g>
<g><path style="opacity:1" fill="#452b0d" d="M 237.5,391.5 C 256.861,389.443 272.694,395.777 285,410.5C 287.208,413.554 288.208,416.887 288,420.5C 285.936,421.591 283.769,421.758 281.5,421C 266.609,406.946 249.275,402.946 229.5,409C 222.956,411.771 217.29,415.771 212.5,421C 205.553,422.468 203.72,419.968 207,413.5C 214.254,402.073 224.42,394.739 237.5,391.5 Z"/></g>
<g><path style="opacity:1" fill="#b81924" d="M 115.5,396.5 C 129.825,414.319 147.492,427.819 168.5,437C 206.491,451.068 245.491,454.401 285.5,447C 322.47,441.528 352.803,424.695 376.5,396.5C 374.399,403.369 371.232,409.702 367,415.5C 354.188,432.826 338.022,445.826 318.5,454.5C 312.724,456.929 306.724,459.095 300.5,461C 260.403,470.811 220.736,469.478 181.5,457C 169.048,452.612 157.715,446.446 147.5,438.5C 138.866,430.698 130.699,422.365 123,413.5C 119.937,409.431 117.27,405.098 115,400.5C 114.235,398.934 114.402,397.601 115.5,396.5 Z"/></g>
</svg>
