<?xml version="1.0" encoding="UTF-8"?>
<!DOCTYPE svg PUBLIC "-//W3C//DTD SVG 1.1//EN" "http://www.w3.org/Graphics/SVG/1.1/DTD/svg11.dtd">
<svg xmlns="http://www.w3.org/2000/svg" version="1.1" width="534px" height="534px" style="shape-rendering:geometricPrecision; text-rendering:geometricPrecision; image-rendering:optimizeQuality; fill-rule:evenodd; clip-rule:evenodd" xmlns:xlink="http://www.w3.org/1999/xlink">
<g><path style="opacity:0.399" fill="#b8ced4" d="M 305.5,125.5 C 304.5,125.5 303.5,125.5 302.5,125.5C 270.561,120.576 238.561,120.243 206.5,124.5C 210.08,96.4176 225.08,77.2509 251.5,67C 265.454,62.2092 279.787,59.2092 294.5,58C 307.507,57.0884 320.507,56.0884 333.5,55C 349.272,53.9613 355.105,45.7946 351,30.5C 346.694,25.5693 345.028,19.9026 346,13.5C 349.66,9.63264 354.16,8.46597 359.5,10C 372.393,15.893 381.559,25.393 387,38.5C 398.764,67.5503 390.931,89.3836 363.5,104C 344.184,111.491 324.85,118.658 305.5,125.5 Z"/></g>
<g><path style="opacity:1" fill="#d0d8da" d="M 302.5,125.5 C 289.121,130.368 278.121,138.535 269.5,150C 270.416,150.278 271.082,150.778 271.5,151.5C 270.833,151.5 270.167,151.5 269.5,151.5C 250.111,149.96 230.778,150.627 211.5,153.5C 208.003,144.187 206.337,134.521 206.5,124.5C 238.561,120.243 270.561,120.576 302.5,125.5 Z"/></g>
<g><path style="opacity:0.996" fill="#dfdfdf" d="M 206.5,124.5 C 206.337,134.521 208.003,144.187 211.5,153.5C 209.901,153.232 208.568,153.566 207.5,154.5C 181.364,157.6 156.697,165.434 133.5,178C 123.078,184.091 114.245,191.925 107,201.5C 98.5072,219.369 102.007,234.536 117.5,247C 132.474,257.32 148.808,264.653 166.5,269C 210.11,279.254 254.11,281.254 298.5,275C 324.958,270.409 349.291,260.742 371.5,246C 393.823,226.794 394.156,207.127 372.5,187C 350.637,170.146 325.971,159.48 298.5,155C 289.544,153.431 280.544,152.264 271.5,151.5C 271.082,150.778 270.416,150.278 269.5,150C 278.121,138.535 289.121,130.368 302.5,125.5C 303.5,125.5 304.5,125.5 305.5,125.5C 332.234,129.797 356.9,139.297 379.5,154C 391.753,162.919 401.92,173.752 410,186.5C 411.881,190.307 413.047,194.307 413.5,198.5C 428.504,198.333 443.504,198.5 458.5,199C 505.553,208.617 523.72,236.784 513,283.5C 504.941,300.226 492.774,313.059 476.5,322C 455.488,332.704 433.154,337.87 409.5,337.5C 406.167,337.833 402.833,338.167 399.5,338.5C 396.379,359.667 388.712,379 376.5,396.5C 355.524,422.227 328.524,438.394 295.5,445C 254.223,453.949 213.556,451.949 173.5,439C 150.328,429.929 130.994,415.763 115.5,396.5C 103,380.495 94.5,362.495 90,342.5C 87.4807,329.363 84.9807,316.363 82.5,303.5C 77.8071,269.992 75.6404,236.326 76,202.5C 77.3391,194.488 80.3391,187.155 85,180.5C 98.287,164.552 114.454,152.385 133.5,144C 156.831,133.723 181.164,127.223 206.5,124.5 Z M 470.5,249.5 C 476.606,262.868 473.606,274.035 461.5,283C 456.615,286.297 451.282,288.631 445.5,290C 432.541,292.937 419.541,295.437 406.5,297.5C 409.056,278.489 411.39,259.489 413.5,240.5C 429.31,238.721 444.977,239.554 460.5,243C 464.411,244.444 467.744,246.611 470.5,249.5 Z"/></g>
<g><path style="opacity:1" fill="#8c807d" d="M 269.5,151.5 C 266.654,155.701 264.988,160.368 264.5,165.5C 248.812,165.265 233.145,165.598 217.5,166.5C 217.167,166.5 216.833,166.5 216.5,166.5C 214.91,162.902 213.41,159.236 212,155.5C 210.644,154.62 209.144,154.286 207.5,154.5C 208.568,153.566 209.901,153.232 211.5,153.5C 230.778,150.627 250.111,149.96 269.5,151.5 Z"/></g>
<g><path style="opacity:1" fill="#6d4b41" d="M 269.5,151.5 C 270.167,151.5 270.833,151.5 271.5,151.5C 280.544,152.264 289.544,153.431 298.5,155C 325.971,159.48 350.637,170.146 372.5,187C 394.156,207.127 393.823,226.794 371.5,246C 349.291,260.742 324.958,270.409 298.5,275C 254.11,281.254 210.11,279.254 166.5,269C 148.808,264.653 132.474,257.32 117.5,247C 102.007,234.536 98.5072,219.369 107,201.5C 114.245,191.925 123.078,184.091 133.5,178C 156.697,165.434 181.364,157.6 207.5,154.5C 209.144,154.286 210.644,154.62 212,155.5C 213.41,159.236 214.91,162.902 216.5,166.5C 192.415,167.82 169.415,173.653 147.5,184C 138.538,188.292 130.705,194.126 124,201.5C 117.167,213.673 120.333,222.173 133.5,227C 146.254,231.944 158.921,231.611 171.5,226C 173.378,224.457 174.878,222.624 176,220.5C 175.927,214.838 175.927,209.171 176,203.5C 181.524,196.669 188.691,194.169 197.5,196C 202.5,197 207.5,198 212.5,199C 227.427,205.301 242.427,211.301 257.5,217C 262.833,217.667 268.167,217.667 273.5,217C 278.423,215.416 281.09,212.082 281.5,207C 281.007,203.353 280.007,199.853 278.5,196.5C 279.477,192.99 281.81,190.823 285.5,190C 296.003,189.139 306.336,190.139 316.5,193C 330.978,198.742 345.312,204.742 359.5,211C 362.964,211.817 366.298,211.483 369.5,210C 370.507,204.255 368.507,199.588 363.5,196C 346.381,183.612 327.381,175.279 306.5,171C 292.627,168.183 278.627,166.349 264.5,165.5C 264.988,160.368 266.654,155.701 269.5,151.5 Z"/></g>
<g><path style="opacity:1" fill="#b5a89a" d="M 264.5,165.5 C 263.002,176.409 261.835,187.409 261,198.5C 258.169,203.737 254.003,204.903 248.5,202C 238.765,196.932 230.932,189.766 225,180.5C 222.22,175.938 219.72,171.272 217.5,166.5C 233.145,165.598 248.812,165.265 264.5,165.5 Z"/></g>
<g><path style="opacity:1" fill="#b48f74" d="M 264.5,165.5 C 278.627,166.349 292.627,168.183 306.5,171C 327.381,175.279 346.381,183.612 363.5,196C 368.507,199.588 370.507,204.255 369.5,210C 366.298,211.483 362.964,211.817 359.5,211C 345.312,204.742 330.978,198.742 316.5,193C 306.336,190.139 296.003,189.139 285.5,190C 281.81,190.823 279.477,192.99 278.5,196.5C 280.007,199.853 281.007,203.353 281.5,207C 281.09,212.082 278.423,215.416 273.5,217C 268.167,217.667 262.833,217.667 257.5,217C 242.427,211.301 227.427,205.301 212.5,199C 207.5,198 202.5,197 197.5,196C 188.691,194.169 181.524,196.669 176,203.5C 175.927,209.171 175.927,214.838 176,220.5C 174.878,222.624 173.378,224.457 171.5,226C 158.921,231.611 146.254,231.944 133.5,227C 120.333,222.173 117.167,213.673 124,201.5C 130.705,194.126 138.538,188.292 147.5,184C 169.415,173.653 192.415,167.82 216.5,166.5C 216.833,166.5 217.167,166.5 217.5,166.5C 219.72,171.272 222.22,175.938 225,180.5C 230.932,189.766 238.765,196.932 248.5,202C 254.003,204.903 258.169,203.737 261,198.5C 261.835,187.409 263.002,176.409 264.5,165.5 Z"/></g>
<g><path style="opacity:1" fill="#b38e73" d="M 304.5,206.5 C 320.282,205.925 334.948,209.758 348.5,218C 351.832,220.489 354.166,223.656 355.5,227.5C 354.514,232.491 351.514,234.824 346.5,234.5C 341.116,233.316 335.783,231.816 330.5,230C 327.167,229.333 323.833,229.333 320.5,230C 315.312,239.102 307.645,245.102 297.5,248C 287.127,248.804 276.793,248.471 266.5,247C 251.078,243.696 235.745,239.863 220.5,235.5C 214.585,237.125 208.585,237.625 202.5,237C 195.951,234.734 193.451,230.234 195,223.5C 198.174,217.415 203.174,215.081 210,216.5C 215.205,216.61 220.372,217.11 225.5,218C 239.101,222.2 252.768,226.2 266.5,230C 276.766,232.644 286.766,231.977 296.5,228C 297.667,226.833 298.833,225.667 300,224.5C 301.224,219.614 301.891,214.614 302,209.5C 303.045,208.627 303.878,207.627 304.5,206.5 Z"/></g>
<g><path style="opacity:0.995" fill="#6da6ad" d="M 487.5,267.5 C 484.578,263.399 481.411,259.399 478,255.5C 475.894,252.882 473.394,250.882 470.5,249.5C 467.744,246.611 464.411,244.444 460.5,243C 444.977,239.554 429.31,238.721 413.5,240.5C 412.669,236.912 412.669,233.245 413.5,229.5C 426.148,228.459 438.815,228.292 451.5,229C 463.811,230.572 474.311,235.739 483,244.5C 487.9,251.498 489.4,259.164 487.5,267.5 Z"/></g>
<g><path style="opacity:0.99" fill="#bbced3" d="M 470.5,249.5 C 473.394,250.882 475.894,252.882 478,255.5C 481.411,259.399 484.578,263.399 487.5,267.5C 483.13,285.71 472.13,298.21 454.5,305C 438.161,309.575 421.495,312.075 404.5,312.5C 404.444,307.269 405.111,302.269 406.5,297.5C 419.541,295.437 432.541,292.937 445.5,290C 451.282,288.631 456.615,286.297 461.5,283C 473.606,274.035 476.606,262.868 470.5,249.5 Z"/></g>
<g><path style="opacity:1" fill="#fefefe" d="M 98.5,261.5 C 104.28,261.26 109.28,263.093 113.5,267C 119.465,271.959 124.298,277.792 128,284.5C 129.271,300.113 129.937,315.78 130,331.5C 133.167,350.001 136.334,368.501 139.5,387C 139.688,392.812 137.021,394.812 131.5,393C 127.421,390.925 123.921,388.092 121,384.5C 101.172,350.735 92.5049,314.068 95,274.5C 95.1131,269.843 96.2797,265.51 98.5,261.5 Z"/></g>
<g><path style="opacity:1" fill="#462f13" d="M 198.5,298.5 C 203.737,298.99 204.903,301.657 202,306.5C 193.158,318.288 181.324,323.621 166.5,322.5C 166.03,316.806 168.697,314.306 174.5,315C 184.308,312.008 192.308,306.508 198.5,298.5 Z"/></g>
<g><path style="opacity:1" fill="#462f13" d="M 289.5,298.5 C 293.812,300.289 297.479,303.123 300.5,307C 307.08,311.751 314.413,314.751 322.5,316C 324.229,317.789 324.896,319.956 324.5,322.5C 309.6,323.797 297.766,318.464 289,306.5C 286.889,303.567 287.056,300.901 289.5,298.5 Z"/></g>
<g><path style="opacity:0.993" fill="#bbced3" d="M 82.5,303.5 C 84.9807,316.363 87.4807,329.363 90,342.5C 94.5,362.495 103,380.495 115.5,396.5C 114.387,397.946 114.22,399.613 115,401.5C 124.569,416.569 136.403,429.569 150.5,440.5C 129.088,427.253 112.255,409.587 100,387.5C 95.2642,378.699 91.0975,369.699 87.5,360.5C 68.4758,366.584 52.6425,377.25 40,392.5C 33.115,407.99 35.115,422.324 46,435.5C 59.6168,450.561 75.7835,462.061 94.5,470C 131.93,485.421 170.93,494.087 211.5,496C 259.088,499.738 306.088,496.071 352.5,485C 382.812,477.355 410.478,464.355 435.5,446C 449.294,435.881 458.794,422.714 464,406.5C 465.367,396.059 461.867,387.559 453.5,381C 437.921,371.012 420.921,364.512 402.5,361.5C 390.594,407.071 362.594,438.071 318.5,454.5C 340.254,444.529 357.754,429.529 371,409.5C 373.403,405.365 375.237,401.032 376.5,396.5C 388.712,379 396.379,359.667 399.5,338.5C 402.833,338.167 406.167,337.833 409.5,337.5C 407.819,340.582 407.152,343.915 407.5,347.5C 428.754,350.748 448.087,358.581 465.5,371C 479.548,382.607 485.048,397.44 482,415.5C 479.114,426.605 474.114,436.605 467,445.5C 445.8,467.673 420.633,483.84 391.5,494C 323.069,516.854 253.069,523.521 181.5,514C 142.81,509.103 106.143,497.769 71.5,480C 54.6285,471.134 40.1285,459.301 28,444.5C 10.1016,416.536 13.6016,391.369 38.5,369C 43.1667,365.667 47.8333,362.333 52.5,359C 62.9836,353.423 73.6502,348.423 84.5,344C 83.8392,341.536 83.3392,339.036 83,336.5C 82.5002,325.505 82.3335,314.505 82.5,303.5 Z"/></g>
<g><path style="opacity:1" fill="#442d10" d="M 179.5,346.5 C 185.005,345.586 189.338,347.42 192.5,352C 202.759,357.476 211.759,355.81 219.5,347C 227.246,346.077 229.746,349.243 227,356.5C 214.792,371.048 200.626,373.215 184.5,363C 179.492,359.358 177.325,354.525 178,348.5C 178.717,347.956 179.217,347.289 179.5,346.5 Z"/></g>
<g><path style="opacity:1" fill="#442d11" d="M 265.5,346.5 C 267.199,346.34 268.866,346.506 270.5,347C 281.177,357.971 292.177,358.304 303.5,348C 313.507,346.328 316.007,349.828 311,358.5C 302.596,368.111 292.096,371.611 279.5,369C 270.764,366.429 264.764,360.929 261.5,352.5C 261.866,349.744 263.2,347.744 265.5,346.5 Z"/></g>
<g><path style="opacity:1" fill="#dfdfdf" d="M 150.5,440.5 C 183.25,461.824 219.25,470.658 258.5,467C 279.315,466.482 299.315,462.316 318.5,454.5C 362.594,438.071 390.594,407.071 402.5,361.5C 420.921,364.512 437.921,371.012 453.5,381C 461.867,387.559 465.367,396.059 464,406.5C 458.794,422.714 449.294,435.881 435.5,446C 410.478,464.355 382.812,477.355 352.5,485C 306.088,496.071 259.088,499.738 211.5,496C 170.93,494.087 131.93,485.421 94.5,470C 75.7835,462.061 59.6168,450.561 46,435.5C 35.115,422.324 33.115,407.99 40,392.5C 52.6425,377.25 68.4758,366.584 87.5,360.5C 91.0975,369.699 95.2642,378.699 100,387.5C 112.255,409.587 129.088,427.253 150.5,440.5 Z"/></g>
<g><path style="opacity:1" fill="#fefefe" d="M 403.5,375.5 C 419.132,373.568 430.965,379.235 439,392.5C 443.281,410.77 436.781,423.604 419.5,431C 414.164,433.002 408.664,434.169 403,434.5C 400.04,434.557 397.207,434.057 394.5,433C 393.483,431.951 393.316,430.784 394,429.5C 399.279,424.221 404.613,418.887 410,413.5C 418.776,401.01 417.11,390.343 405,381.5C 403.872,379.655 403.372,377.655 403.5,375.5 Z"/></g>
<g><path style="opacity:1" fill="#fefefe" d="M 72.5,380.5 C 75.8499,380.335 79.1832,380.502 82.5,381C 86.914,381.748 88.414,384.248 87,388.5C 82.549,393.402 79.7156,399.069 78.5,405.5C 79.4499,412.399 82.2832,418.399 87,423.5C 93.2551,429.759 100.088,435.259 107.5,440C 120.211,446.573 133.211,452.573 146.5,458C 150.643,459.957 152.976,463.124 153.5,467.5C 120.868,466.863 91.2012,457.029 64.5,438C 57.3547,432.54 52.188,425.706 49,417.5C 46.3099,398.168 54.1433,385.835 72.5,380.5 Z"/></g>
<g><path style="opacity:1" fill="#6ca5ac" d="M 115.5,396.5 C 130.994,415.763 150.328,429.929 173.5,439C 213.556,451.949 254.223,453.949 295.5,445C 328.524,438.394 355.524,422.227 376.5,396.5C 375.237,401.032 373.403,405.365 371,409.5C 357.754,429.529 340.254,444.529 318.5,454.5C 299.315,462.316 279.315,466.482 258.5,467C 219.25,470.658 183.25,461.824 150.5,440.5C 136.403,429.569 124.569,416.569 115,401.5C 114.22,399.613 114.387,397.946 115.5,396.5 Z"/></g>
<g><path style="opacity:1" fill="#38250f" d="M 222.5,398.5 C 237.837,398.333 253.17,398.5 268.5,399C 274.259,402.892 274.926,407.559 270.5,413C 253.833,413.667 237.167,413.667 220.5,413C 216.002,407.32 216.669,402.487 222.5,398.5 Z"/></g>
</svg>
