<?xml version="1.0" encoding="UTF-8"?>
<!DOCTYPE svg PUBLIC "-//W3C//DTD SVG 1.1//EN" "http://www.w3.org/Graphics/SVG/1.1/DTD/svg11.dtd">
<svg xmlns="http://www.w3.org/2000/svg" version="1.1" width="534px" height="534px" style="shape-rendering:geometricPrecision; text-rendering:geometricPrecision; image-rendering:optimizeQuality; fill-rule:evenodd; clip-rule:evenodd" xmlns:xlink="http://www.w3.org/1999/xlink">
<g><path style="opacity:0.398" fill="#b8cdd3" d="M 305.5,128.5 C 304.5,128.5 303.5,128.5 302.5,128.5C 287.073,125.603 271.239,124.27 255,124.5C 246.675,124.887 238.508,124.887 230.5,124.5C 222.172,125.293 214.172,126.293 206.5,127.5C 206.167,127.5 205.833,127.5 205.5,127.5C 210.047,97.1114 227.047,77.278 256.5,68C 261.768,66.413 267.101,65.0797 272.5,64C 292.408,61.1187 312.408,59.1187 332.5,58C 348.144,57.5243 354.311,49.691 351,34.5C 348.141,30.1452 345.974,25.4786 344.5,20.5C 345.099,14.7315 348.266,12.0649 354,12.5C 359.421,12.7943 364.254,14.6277 368.5,18C 388.585,34.9197 395.418,56.0864 389,81.5C 384.268,90.8996 377.434,98.3996 368.5,104C 361.405,107.881 354.071,111.215 346.5,114C 332.546,118.371 318.879,123.205 305.5,128.5 Z"/></g>
<g><path style="opacity:1" fill="#cfd8da" d="M 302.5,128.5 C 293.07,132.746 284.237,138.079 276,144.5C 273.615,147.379 271.448,150.379 269.5,153.5C 250.135,153.376 230.802,154.043 211.5,155.5C 209.672,152.865 208.505,149.865 208,146.5C 206.812,140.222 206.312,133.888 206.5,127.5C 214.172,126.293 222.172,125.293 230.5,124.5C 238.508,124.887 246.675,124.887 255,124.5C 271.239,124.27 287.073,125.603 302.5,128.5 Z"/></g>
<g><path style="opacity:0.994" fill="#dfdfdf" d="M 205.5,127.5 C 205.833,127.5 206.167,127.5 206.5,127.5C 206.312,133.888 206.812,140.222 208,146.5C 208.505,149.865 209.672,152.865 211.5,155.5C 211.5,155.833 211.5,156.167 211.5,156.5C 179.195,159.767 149.528,170.267 122.5,188C 114.323,193.857 108.157,201.357 104,210.5C 100.022,225.429 103.856,237.929 115.5,248C 132.391,260.108 151.057,268.441 171.5,273C 208.493,281.166 245.826,283.333 283.5,279.5C 283.549,293.761 289.882,304.261 302.5,311C 315.447,317.482 329.114,321.649 343.5,323.5C 345.279,322.606 346.612,321.273 347.5,319.5C 359.605,303.945 365.438,286.278 365,266.5C 363.981,262.603 362.481,258.936 360.5,255.5C 374.081,249.086 383.247,238.752 388,224.5C 388.914,218.97 388.247,213.637 386,208.5C 379.553,195.72 370.053,185.886 357.5,179C 331.029,164.465 302.696,156.298 272.5,154.5C 271.791,153.596 270.791,153.263 269.5,153.5C 271.448,150.379 273.615,147.379 276,144.5C 284.237,138.079 293.07,132.746 302.5,128.5C 303.5,128.5 304.5,128.5 305.5,128.5C 342.887,133.776 374.72,149.776 401,176.5C 407.292,183.751 411.459,192.084 413.5,201.5C 428.852,200.147 444.186,200.314 459.5,202C 503.396,210.98 521.563,237.48 514,281.5C 509.393,295.556 501.226,307.056 489.5,316C 464.988,333.134 437.655,341.301 407.5,340.5C 404.753,340.187 402.086,340.52 399.5,341.5C 395.917,362.272 388.25,381.272 376.5,398.5C 368.042,409.961 357.708,419.294 345.5,426.5C 343.95,425.559 342.284,424.893 340.5,424.5C 333.841,422.998 327.174,423.332 320.5,425.5C 321.107,415.135 316.774,407.801 307.5,403.5C 291.419,399.368 280.919,405.368 276,421.5C 275.138,431.256 275.638,440.922 277.5,450.5C 238.945,456.531 201.612,452.364 165.5,438C 145.435,429.098 128.768,415.931 115.5,398.5C 106.833,387.636 99.9993,375.636 95,362.5C 89.8534,343.907 85.6868,325.241 82.5,306.5C 78.74,277.287 76.4067,247.954 75.5,218.5C 74.4609,205.654 77.6276,193.987 85,183.5C 98.6838,166.824 115.517,154.324 135.5,146C 157.925,136.394 181.258,130.227 205.5,127.5 Z M 415.5,242.5 C 427.872,242.185 440.205,242.685 452.5,244C 459.441,244.972 465.441,247.805 470.5,252.5C 475.947,272.96 468.28,286.126 447.5,292C 434.024,295.579 420.357,298.079 406.5,299.5C 409.012,280.89 411.012,262.224 412.5,243.5C 413.791,243.737 414.791,243.404 415.5,242.5 Z"/></g>
<g><path style="opacity:1" fill="#8c807d" d="M 269.5,153.5 C 270.791,153.263 271.791,153.596 272.5,154.5C 271.022,154.238 269.689,154.571 268.5,155.5C 265.952,159.476 264.619,163.81 264.5,168.5C 264.167,168.5 263.833,168.5 263.5,168.5C 248.089,168.183 232.755,168.517 217.5,169.5C 217.167,169.5 216.833,169.5 216.5,169.5C 214.638,165.25 212.972,160.917 211.5,156.5C 211.5,156.167 211.5,155.833 211.5,155.5C 230.802,154.043 250.135,153.376 269.5,153.5 Z"/></g>
<g><path style="opacity:1" fill="#6d4c41" d="M 272.5,154.5 C 302.696,156.298 331.029,164.465 357.5,179C 370.053,185.886 379.553,195.72 386,208.5C 388.247,213.637 388.914,218.97 388,224.5C 383.247,238.752 374.081,249.086 360.5,255.5C 350.783,245.331 340.116,243.998 328.5,251.5C 324.213,254.797 321.546,259.131 320.5,264.5C 319.732,265.263 319.232,266.263 319,267.5C 311.007,261.119 302.841,260.452 294.5,265.5C 288.61,268.393 284.943,273.06 283.5,279.5C 245.826,283.333 208.493,281.166 171.5,273C 151.057,268.441 132.391,260.108 115.5,248C 103.856,237.929 100.022,225.429 104,210.5C 108.157,201.357 114.323,193.857 122.5,188C 149.528,170.267 179.195,159.767 211.5,156.5C 212.972,160.917 214.638,165.25 216.5,169.5C 195.53,171.216 175.197,175.716 155.5,183C 142.216,188.38 131.049,196.547 122,207.5C 118.187,217.71 121.353,224.876 131.5,229C 141.894,232.396 152.561,233.396 163.5,232C 175.423,229.325 179.423,222.158 175.5,210.5C 175.674,205.153 178.341,201.653 183.5,200C 190.812,198.178 198.145,198.178 205.5,200C 218.699,203.622 231.366,208.622 243.5,215C 248.405,216.953 253.405,218.62 258.5,220C 265.644,221.421 272.311,220.421 278.5,217C 280.592,215.147 281.592,212.814 281.5,210C 280.156,205.523 279.323,201.023 279,196.5C 283.926,193.13 289.426,191.796 295.5,192.5C 306.6,193.031 317.267,195.531 327.5,200C 338.221,205.243 349.221,209.91 360.5,214C 371.504,214.221 373.337,210.054 366,201.5C 352.096,189.797 336.263,181.63 318.5,177C 300.749,172.541 282.749,169.708 264.5,168.5C 264.619,163.81 265.952,159.476 268.5,155.5C 269.689,154.571 271.022,154.238 272.5,154.5 Z"/></g>
<g><path style="opacity:1" fill="#b5a89a" d="M 263.5,168.5 C 262.689,179.828 261.856,191.161 261,202.5C 257.263,206.847 252.763,207.681 247.5,205C 234.063,196.064 224.063,184.231 217.5,169.5C 232.755,168.517 248.089,168.183 263.5,168.5 Z"/></g>
<g><path style="opacity:1" fill="#b48f74" d="M 263.5,168.5 C 263.833,168.5 264.167,168.5 264.5,168.5C 282.749,169.708 300.749,172.541 318.5,177C 336.263,181.63 352.096,189.797 366,201.5C 373.337,210.054 371.504,214.221 360.5,214C 349.221,209.91 338.221,205.243 327.5,200C 317.267,195.531 306.6,193.031 295.5,192.5C 289.426,191.796 283.926,193.13 279,196.5C 279.323,201.023 280.156,205.523 281.5,210C 281.592,212.814 280.592,215.147 278.5,217C 272.311,220.421 265.644,221.421 258.5,220C 253.405,218.62 248.405,216.953 243.5,215C 231.366,208.622 218.699,203.622 205.5,200C 198.145,198.178 190.812,198.178 183.5,200C 178.341,201.653 175.674,205.153 175.5,210.5C 179.423,222.158 175.423,229.325 163.5,232C 152.561,233.396 141.894,232.396 131.5,229C 121.353,224.876 118.187,217.71 122,207.5C 131.049,196.547 142.216,188.38 155.5,183C 175.197,175.716 195.53,171.216 216.5,169.5C 216.833,169.5 217.167,169.5 217.5,169.5C 224.063,184.231 234.063,196.064 247.5,205C 252.763,207.681 257.263,206.847 261,202.5C 261.856,191.161 262.689,179.828 263.5,168.5 Z"/></g>
<g><path style="opacity:1" fill="#b38e73" d="M 305.5,208.5 C 319.583,209.026 332.917,212.526 345.5,219C 348.63,221.128 351.463,223.628 354,226.5C 355.914,233.368 353.414,237.035 346.5,237.5C 340.425,235.975 334.425,234.142 328.5,232C 326.167,231.333 323.833,231.333 321.5,232C 317.868,236.634 313.868,240.967 309.5,245C 296.529,251.707 282.862,253.374 268.5,250C 253.78,247.737 239.446,244.07 225.5,239C 218.096,238.703 210.762,239.036 203.5,240C 195.828,237.311 193.328,232.145 196,224.5C 199.74,219.881 204.573,217.881 210.5,218.5C 214.236,218.528 217.903,219.028 221.5,220C 236.764,224.532 252.098,228.865 267.5,233C 276.593,235.184 285.593,234.851 294.5,232C 296.286,231.215 297.786,230.049 299,228.5C 300.224,223.614 300.891,218.614 301,213.5C 302.025,211.313 303.525,209.646 305.5,208.5 Z"/></g>
<g><path style="opacity:0.989" fill="#6da6ad" d="M 487.5,270.5 C 482.509,263.843 476.843,257.843 470.5,252.5C 465.441,247.805 459.441,244.972 452.5,244C 440.205,242.685 427.872,242.185 415.5,242.5C 414.5,242.5 413.5,242.5 412.5,242.5C 412.5,239.167 412.5,235.833 412.5,232.5C 423.162,231.583 433.829,231.083 444.5,231C 459.499,231.659 472.332,237.159 483,247.5C 487.113,254.595 488.613,262.261 487.5,270.5 Z"/></g>
<g><path style="opacity:1" fill="#c82d2b" d="M 360.5,255.5 C 362.481,258.936 363.981,262.603 365,266.5C 365.438,286.278 359.605,303.945 347.5,319.5C 349.098,314.299 351.265,309.299 354,304.5C 358.207,293.195 359.54,281.528 358,269.5C 352.661,256.243 342.828,250.243 328.5,251.5C 340.116,243.998 350.783,245.331 360.5,255.5 Z"/></g>
<g><path style="opacity:1" fill="#f34336" d="M 328.5,251.5 C 342.828,250.243 352.661,256.243 358,269.5C 359.54,281.528 358.207,293.195 354,304.5C 351.265,309.299 349.098,314.299 347.5,319.5C 346.612,321.273 345.279,322.606 343.5,323.5C 329.114,321.649 315.447,317.482 302.5,311C 289.882,304.261 283.549,293.761 283.5,279.5C 284.943,273.06 288.61,268.393 294.5,265.5C 303.988,265.577 311.655,269.411 317.5,277C 323.898,277.829 325.065,275.662 321,270.5C 320.505,268.527 320.338,266.527 320.5,264.5C 321.546,259.131 324.213,254.797 328.5,251.5 Z"/></g>
<g><path style="opacity:0.983" fill="#bbced3" d="M 470.5,252.5 C 476.843,257.843 482.509,263.843 487.5,270.5C 481.855,289.647 469.521,302.481 450.5,309C 435.433,313.063 420.099,314.896 404.5,314.5C 404.294,309.343 404.961,304.343 406.5,299.5C 420.357,298.079 434.024,295.579 447.5,292C 468.28,286.126 475.947,272.96 470.5,252.5 Z"/></g>
<g><path style="opacity:1" fill="#c72a29" d="M 320.5,264.5 C 320.338,266.527 320.505,268.527 321,270.5C 325.065,275.662 323.898,277.829 317.5,277C 311.655,269.411 303.988,265.577 294.5,265.5C 302.841,260.452 311.007,261.119 319,267.5C 319.232,266.263 319.732,265.263 320.5,264.5 Z"/></g>
<g><path style="opacity:1" fill="#fefefe" d="M 136.5,375.5 C 130.677,379.613 127.677,385.279 127.5,392.5C 124.87,390.372 122.37,388.039 120,385.5C 98.5105,348.055 91.1772,308.055 98,265.5C 100.593,263.163 103.426,262.996 106.5,265C 114.294,270.46 121.127,276.96 127,284.5C 130.391,297.643 131.224,310.977 129.5,324.5C 129.97,330.169 130.47,335.836 131,341.5C 133.416,352.747 135.25,364.081 136.5,375.5 Z"/></g>
<g><path style="opacity:1" fill="#fe8278" d="M 295.5,272.5 C 298.652,271.959 301.152,272.959 303,275.5C 303.546,278.855 303.379,282.188 302.5,285.5C 303.218,289.146 304.218,292.646 305.5,296C 305.549,300.151 303.549,301.484 299.5,300C 291.375,294.64 288.542,287.14 291,277.5C 292.059,275.341 293.559,273.674 295.5,272.5 Z"/></g>
<g><path style="opacity:1" fill="#442d10" d="M 206.5,304.5 C 219.5,303.746 228.333,309.413 233,321.5C 233.502,329.653 229.669,332.82 221.5,331C 218.536,327.356 215.036,324.522 211,322.5C 209.373,322.625 207.873,323.125 206.5,324C 204.15,326.419 201.816,328.752 199.5,331C 192.938,332.898 189.271,330.565 188.5,324C 190.915,314.089 196.915,307.589 206.5,304.5 Z"/></g>
<g><path style="opacity:1" fill="#442d10" d="M 275.5,304.5 C 290.228,303.357 299.561,309.857 303.5,324C 302.424,330.41 298.757,332.743 292.5,331C 289.833,329.667 287.833,327.667 286.5,325C 284.217,322.81 281.551,322.143 278.5,323C 275.797,326.038 272.797,328.705 269.5,331C 258.522,331.311 255.688,326.477 261,316.5C 264.541,310.78 269.374,306.78 275.5,304.5 Z"/></g>
<g><path style="opacity:0.983" fill="#bbced3" d="M 82.5,306.5 C 85.6868,325.241 89.8534,343.907 95,362.5C 99.9993,375.636 106.833,387.636 115.5,398.5C 114.441,400.726 114.608,403.059 116,405.5C 121.023,414.195 127.19,422.028 134.5,429C 140.397,434.406 146.397,439.572 152.5,444.5C 121.507,425.169 100.174,398.169 88.5,363.5C 68.6677,368.818 52.5011,379.485 40,395.5C 34.9158,404.512 34.2491,413.845 38,423.5C 45.3139,439.149 56.4805,451.316 71.5,460C 90.7396,471.192 111.073,479.859 132.5,486C 199.798,502.108 267.465,503.775 335.5,491C 374.474,483.803 409.474,468.137 440.5,444C 446.926,437.632 452.759,430.798 458,423.5C 468.93,406.478 466.096,392.311 449.5,381C 434.639,372.379 418.806,367.212 402,365.5C 394.512,395.514 378.345,419.514 353.5,437.5C 352.89,436.609 352.557,435.609 352.5,434.5C 359.252,428.25 365.085,421.25 370,413.5C 373.237,408.951 375.404,403.951 376.5,398.5C 388.25,381.272 395.917,362.272 399.5,341.5C 402.086,340.52 404.753,340.187 407.5,340.5C 407.219,343.817 407.219,346.983 407.5,350C 428.319,353.379 447.319,361.045 464.5,373C 482.607,388.526 487.107,407.359 478,429.5C 467.265,448.902 452.432,464.402 433.5,476C 390.006,500.212 343.34,514.212 293.5,518C 238.422,523.829 184.089,519.829 130.5,506C 99.3354,497.916 71.0021,484.249 45.5,465C 40.3333,459.833 35.1667,454.667 30,449.5C 12.3511,427.182 12.0177,404.516 29,381.5C 44.022,364.736 62.522,353.736 84.5,348.5C 82.7104,334.578 82.0437,320.578 82.5,306.5 Z"/></g>
<g><path style="opacity:1" fill="#e2cecd" d="M 302.5,389.5 C 303.795,388.512 305.128,387.512 306.5,386.5C 318.245,389.443 328.078,386.443 336,377.5C 342.531,366.506 341.364,356.34 332.5,347C 322.038,340.067 311.372,339.734 300.5,346C 291.081,354.66 289.081,364.827 294.5,376.5C 292.491,378.065 290.157,379.065 287.5,379.5C 287.894,378.033 288.227,376.533 288.5,375C 283.699,356.26 290.365,343.927 308.5,338C 325.838,334.748 337.671,341.248 344,357.5C 345.414,365.559 344.414,373.225 341,380.5C 329.927,390.976 317.094,393.976 302.5,389.5 Z"/></g>
<g><path style="opacity:1" fill="#e4c0be" d="M 202.5,362.5 C 201.833,362.167 201.167,361.833 200.5,361.5C 193.02,344.787 181.02,340.621 164.5,349C 158.024,355.452 155.691,363.285 157.5,372.5C 156.209,372.737 155.209,372.404 154.5,371.5C 152.656,349.844 162.656,340.011 184.5,342C 194.945,344.945 200.945,351.778 202.5,362.5 Z"/></g>
<g><path style="opacity:1" fill="#e2cdcc" d="M 206.5,367.5 C 204.937,366.055 203.604,364.389 202.5,362.5C 200.945,351.778 194.945,344.945 184.5,342C 162.656,340.011 152.656,349.844 154.5,371.5C 151.833,371.5 149.167,371.5 146.5,371.5C 147.209,370.596 148.209,370.263 149.5,370.5C 148.122,349.875 157.788,338.875 178.5,337.5C 197.145,338.812 206.478,348.812 206.5,367.5 Z"/></g>
<g><path style="opacity:1" fill="#e6b0ac" d="M 200.5,361.5 C 196.725,358.463 192.392,356.796 187.5,356.5C 182.438,351.993 176.771,351.326 170.5,354.5C 166.068,358.442 164.735,363.109 166.5,368.5C 165.25,371.006 164.584,373.673 164.5,376.5C 161.669,375.921 159.336,374.588 157.5,372.5C 155.691,363.285 158.024,355.452 164.5,349C 181.02,340.621 193.02,344.787 200.5,361.5 Z"/></g>
<g><path style="opacity:1" fill="#e5b1ae" d="M 312.5,381.5 C 313.167,380.167 314.167,379.167 315.5,378.5C 323.993,378.844 329.16,374.844 331,366.5C 330.533,354.703 324.366,349.203 312.5,350C 300.749,354.415 297.749,362.248 303.5,373.5C 302.167,374.167 300.833,374.833 299.5,375.5C 292.702,358.764 298.202,348.764 316,345.5C 333.062,348.862 338.395,358.528 332,374.5C 326.929,381.354 320.429,383.687 312.5,381.5 Z"/></g>
<g><path style="opacity:1" fill="#e89b96" d="M 187.5,356.5 C 182.554,356.262 178.221,357.596 174.5,360.5C 171.395,362.694 168.728,365.36 166.5,368.5C 164.735,363.109 166.068,358.442 170.5,354.5C 176.771,351.326 182.438,351.993 187.5,356.5 Z"/></g>
<g><path style="opacity:1" fill="#e4bfbc" d="M 306.5,386.5 C 308.475,384.863 310.475,383.196 312.5,381.5C 320.429,383.687 326.929,381.354 332,374.5C 338.395,358.528 333.062,348.862 316,345.5C 298.202,348.764 292.702,358.764 299.5,375.5C 297.958,376.301 296.292,376.634 294.5,376.5C 289.081,364.827 291.081,354.66 300.5,346C 311.372,339.734 322.038,340.067 332.5,347C 341.364,356.34 342.531,366.506 336,377.5C 328.078,386.443 318.245,389.443 306.5,386.5 Z"/></g>
<g><path style="opacity:1" fill="#e79d98" d="M 315.5,378.5 C 316.793,376.704 318.293,375.037 320,373.5C 321.5,368.333 319.667,366.5 314.5,368C 311.086,370.374 307.419,372.207 303.5,373.5C 297.749,362.248 300.749,354.415 312.5,350C 324.366,349.203 330.533,354.703 331,366.5C 329.16,374.844 323.993,378.844 315.5,378.5 Z"/></g>
<g><path style="opacity:1" fill="#c82d2b" d="M 187.5,356.5 C 192.392,356.796 196.725,358.463 200.5,361.5C 201.167,361.833 201.833,362.167 202.5,362.5C 203.604,364.389 204.937,366.055 206.5,367.5C 208.328,371.985 209.328,376.652 209.5,381.5C 209.269,387.552 208.602,393.552 207.5,399.5C 205.108,403.956 202.942,408.623 201,413.5C 197.725,419.07 194.225,424.403 190.5,429.5C 194.545,421.408 198.045,413.075 201,404.5C 206.089,390.61 203.922,378.11 194.5,367C 188.642,362.368 181.976,360.202 174.5,360.5C 178.221,357.596 182.554,356.262 187.5,356.5 Z"/></g>
<g><path style="opacity:1" fill="#f34336" d="M 174.5,360.5 C 181.976,360.202 188.642,362.368 194.5,367C 203.922,378.11 206.089,390.61 201,404.5C 198.045,413.075 194.545,421.408 190.5,429.5C 190.063,432.049 188.563,433.382 186,433.5C 168.244,430.697 152.077,424.197 137.5,414C 131.864,407.895 128.531,400.729 127.5,392.5C 127.677,385.279 130.677,379.613 136.5,375.5C 137.167,375.167 137.833,374.833 138.5,374.5C 144.394,373.943 149.727,375.443 154.5,379C 157.42,382.427 160.753,385.261 164.5,387.5C 166.5,387.5 167.5,386.5 167.5,384.5C 167.06,381.786 165.726,379.62 163.5,378C 164.056,377.617 164.389,377.117 164.5,376.5C 164.584,373.673 165.25,371.006 166.5,368.5C 168.728,365.36 171.395,362.694 174.5,360.5 Z"/></g>
<g><path style="opacity:1" fill="#dfdfdf" d="M 152.5,444.5 C 180.887,462.724 212.053,471.057 246,469.5C 258.544,469.525 271.044,468.858 283.5,467.5C 285.121,470.741 286.787,474.075 288.5,477.5C 290.045,478.452 291.712,478.785 293.5,478.5C 311.919,478.989 328.919,474.489 344.5,465C 353.122,457.681 356.122,448.514 353.5,437.5C 378.345,419.514 394.512,395.514 402,365.5C 418.806,367.212 434.639,372.379 449.5,381C 466.096,392.311 468.93,406.478 458,423.5C 452.759,430.798 446.926,437.632 440.5,444C 409.474,468.137 374.474,483.803 335.5,491C 267.465,503.775 199.798,502.108 132.5,486C 111.073,479.859 90.7396,471.192 71.5,460C 56.4805,451.316 45.3139,439.149 38,423.5C 34.2491,413.845 34.9158,404.512 40,395.5C 52.5011,379.485 68.6677,368.818 88.5,363.5C 100.174,398.169 121.507,425.169 152.5,444.5 Z"/></g>
<g><path style="opacity:1" fill="#432c0e" d="M 315.5,378.5 C 314.167,379.167 313.167,380.167 312.5,381.5C 310.475,383.196 308.475,384.863 306.5,386.5C 305.128,387.512 303.795,388.512 302.5,389.5C 272.554,408.29 240.887,411.623 207.5,399.5C 208.602,393.552 209.269,387.552 209.5,381.5C 235.708,387.342 261.708,386.676 287.5,379.5C 290.157,379.065 292.491,378.065 294.5,376.5C 296.292,376.634 297.958,376.301 299.5,375.5C 300.833,374.833 302.167,374.167 303.5,373.5C 307.419,372.207 311.086,370.374 314.5,368C 319.667,366.5 321.5,368.333 320,373.5C 318.293,375.037 316.793,376.704 315.5,378.5 Z"/></g>
<g><path style="opacity:1" fill="#c82b2a" d="M 146.5,371.5 C 149.167,371.5 151.833,371.5 154.5,371.5C 155.209,372.404 156.209,372.737 157.5,372.5C 159.336,374.588 161.669,375.921 164.5,376.5C 164.389,377.117 164.056,377.617 163.5,378C 165.726,379.62 167.06,381.786 167.5,384.5C 167.5,386.5 166.5,387.5 164.5,387.5C 160.753,385.261 157.42,382.427 154.5,379C 149.727,375.443 144.394,373.943 138.5,374.5C 140.792,372.733 143.458,371.733 146.5,371.5 Z"/></g>
<g><path style="opacity:1" fill="#fefefe" d="M 404.5,377.5 C 418.64,376.821 429.806,382.155 438,393.5C 443.628,412.082 437.461,425.249 419.5,433C 413.202,435.366 406.702,436.866 400,437.5C 395.193,437.453 393.193,435.12 394,430.5C 400.514,426.075 406.181,420.741 411,414.5C 417.698,401.706 415.364,391.04 404,382.5C 403.36,380.735 403.527,379.068 404.5,377.5 Z"/></g>
<g><path style="opacity:1" fill="#fe8278" d="M 138.5,381.5 C 142.013,380.876 144.847,381.876 147,384.5C 147.445,387.678 147.278,390.845 146.5,394C 147.095,397.784 148.095,401.451 149.5,405C 148.39,409.643 145.723,410.643 141.5,408C 134.863,402.289 132.696,395.123 135,386.5C 136.176,384.804 137.343,383.138 138.5,381.5 Z"/></g>
<g><path style="opacity:1" fill="#fefefe" d="M 71.5,383.5 C 75.1817,383.335 78.8484,383.501 82.5,384C 86.426,384.58 87.926,386.747 87,390.5C 84.3333,394.5 81.6667,398.5 79,402.5C 77.8463,409.885 79.5129,416.552 84,422.5C 90.6141,430.121 98.1141,436.621 106.5,442C 120.328,449.052 134.328,455.719 148.5,462C 155.733,467.114 155.066,470.281 146.5,471.5C 116.972,467.875 89.9716,457.708 65.5,441C 58.1186,435.284 52.6186,428.118 49,419.5C 46.6889,401.083 54.1889,389.083 71.5,383.5 Z"/></g>
<g><path style="opacity:1" fill="#6ca6ac" d="M 115.5,398.5 C 128.768,415.931 145.435,429.098 165.5,438C 201.612,452.364 238.945,456.531 277.5,450.5C 279.473,456.081 281.473,461.748 283.5,467.5C 271.044,468.858 258.544,469.525 246,469.5C 212.053,471.057 180.887,462.724 152.5,444.5C 146.397,439.572 140.397,434.406 134.5,429C 127.19,422.028 121.023,414.195 116,405.5C 114.608,403.059 114.441,400.726 115.5,398.5 Z"/></g>
<g><path style="opacity:1" fill="#f34336" d="M 307.5,403.5 C 309.243,405.982 310.743,408.649 312,411.5C 312.397,418.523 312.397,425.523 312,432.5C 313.388,433.554 314.888,433.72 316.5,433C 318.496,430.838 319.83,428.338 320.5,425.5C 327.174,423.332 333.841,422.998 340.5,424.5C 349.994,440.035 347.661,453.535 333.5,465C 320.973,472.231 307.64,476.731 293.5,478.5C 291.712,478.785 290.045,478.452 288.5,477.5C 286.787,474.075 285.121,470.741 283.5,467.5C 281.473,461.748 279.473,456.081 277.5,450.5C 275.638,440.922 275.138,431.256 276,421.5C 280.919,405.368 291.419,399.368 307.5,403.5 Z"/></g>
<g><path style="opacity:1" fill="#6ea6ac" d="M 376.5,398.5 C 375.404,403.951 373.237,408.951 370,413.5C 365.085,421.25 359.252,428.25 352.5,434.5C 350.196,431.859 347.862,429.192 345.5,426.5C 357.708,419.294 368.042,409.961 376.5,398.5 Z"/></g>
<g><path style="opacity:1" fill="#ca302d" d="M 307.5,403.5 C 316.774,407.801 321.107,415.135 320.5,425.5C 319.83,428.338 318.496,430.838 316.5,433C 314.888,433.72 313.388,433.554 312,432.5C 312.397,425.523 312.397,418.523 312,411.5C 310.743,408.649 309.243,405.982 307.5,403.5 Z"/></g>
<g><path style="opacity:1" fill="#fe8278" d="M 293.5,408.5 C 296.978,408.184 300.312,408.684 303.5,410C 304.602,412.401 304.769,414.901 304,417.5C 301.079,419.712 297.912,421.545 294.5,423C 292.743,425.846 290.743,428.512 288.5,431C 286.833,431.667 285.167,431.667 283.5,431C 281.248,421.006 284.581,413.506 293.5,408.5 Z"/></g>
<g><path style="opacity:1" fill="#c82d2c" d="M 340.5,424.5 C 342.284,424.893 343.95,425.559 345.5,426.5C 347.862,429.192 350.196,431.859 352.5,434.5C 352.557,435.609 352.89,436.609 353.5,437.5C 356.122,448.514 353.122,457.681 344.5,465C 328.919,474.489 311.919,478.989 293.5,478.5C 307.64,476.731 320.973,472.231 333.5,465C 347.661,453.535 349.994,440.035 340.5,424.5 Z"/></g>
</svg>
