<?xml version="1.0" encoding="UTF-8"?>
<!DOCTYPE svg PUBLIC "-//W3C//DTD SVG 1.1//EN" "http://www.w3.org/Graphics/SVG/1.1/DTD/svg11.dtd">
<svg xmlns="http://www.w3.org/2000/svg" version="1.1" width="3436px" height="1182px" style="shape-rendering:geometricPrecision; text-rendering:geometricPrecision; image-rendering:optimizeQuality; fill-rule:evenodd; clip-rule:evenodd" xmlns:xlink="http://www.w3.org/1999/xlink">
<g><path style="opacity:0.996" fill="#00335f" d="M 1195.5,190.5 C 1263.11,187.896 1328.45,198.729 1391.5,223C 1464.21,253.723 1522.38,301.889 1566,367.5C 1599.88,423.331 1616.38,483.998 1615.5,549.5C 1524.83,549.5 1434.17,549.5 1343.5,549.5C 1338.19,500.701 1313.52,465.534 1269.5,444C 1232.21,429.824 1194.54,428.824 1156.5,441C 1124.92,453.706 1100.75,474.873 1084,504.5C 1061.76,548.669 1057.1,594.669 1070,642.5C 1091.87,710.193 1138.37,745.527 1209.5,748.5C 1260.74,748.644 1299.9,727.31 1327,684.5C 1336.43,668.041 1341.93,650.375 1343.5,631.5C 1434.17,631.5 1524.83,631.5 1615.5,631.5C 1614.4,751.541 1565.4,846.374 1468.5,916C 1400.45,962.127 1325.11,986.461 1242.5,989C 1167.12,993.77 1094.46,982.103 1024.5,954C 937.426,915.259 872.926,853.093 831,767.5C 805.908,711.04 793.741,651.873 794.5,590C 795.514,432.885 863.848,315.885 999.5,239C 1061.34,208.374 1126.67,192.207 1195.5,190.5 Z"/></g>
<g><path style="opacity:0.996" fill="#00335f" d="M 1972.5,190.5 C 2049.78,188.522 2123.78,203.022 2194.5,234C 2264.5,267.109 2310.33,320.942 2332,395.5C 2337.19,415.118 2341.02,434.952 2343.5,455C 2253.83,455.667 2164.17,455.667 2074.5,455C 2059.21,411.841 2028.88,394.841 1983.5,404C 1961.34,409.5 1954.5,422.667 1963,443.5C 1967.86,449.016 1973.7,453.183 1980.5,456C 2037.75,471.645 2095.08,486.978 2152.5,502C 2202.73,515.949 2248.4,538.616 2289.5,570C 2321.63,596.517 2341.8,630.35 2350,671.5C 2372.59,804.847 2322.75,899.347 2200.5,955C 2137.2,979.641 2071.53,991.141 2003.5,989.5C 1932.88,990.898 1864.88,978.398 1799.5,952C 1732.45,924.288 1684.62,877.121 1656,810.5C 1643.12,778.986 1634.62,746.319 1630.5,712.5C 1719.83,712.5 1809.17,712.5 1898.5,712.5C 1904.36,738.204 1919.7,755.704 1944.5,765C 1971.67,773.674 1999.33,776.007 2027.5,772C 2035.94,770.943 2043.61,767.943 2050.5,763C 2059.23,754.62 2060.73,745.12 2055,734.5C 2045.49,725.66 2034.32,719.826 2021.5,717C 1971.79,703.489 1922.12,689.822 1872.5,676C 1836.4,665.524 1801.74,651.524 1768.5,634C 1739.44,618.616 1714.94,597.783 1695,571.5C 1676.16,542.66 1665.5,510.993 1663,476.5C 1655.17,358.276 1704.67,274.443 1811.5,225C 1863.06,203.189 1916.73,191.689 1972.5,190.5 Z"/></g>
<g><path style="opacity:0.996" fill="#dfcd1b" d="M 2721.5,190.5 C 2807.48,188.164 2888.82,206.331 2965.5,245C 3021.5,278.695 3059.34,326.861 3079,389.5C 3085.67,411.033 3089.84,433.033 3091.5,455.5C 3002.17,455.667 2912.83,455.5 2823.5,455C 2818.6,439.209 2809.94,425.875 2797.5,415C 2784.48,405.95 2769.98,401.45 2754,401.5C 2744.31,401.865 2734.81,403.365 2725.5,406C 2708.83,413.495 2704,425.662 2711,442.5C 2715.94,448.565 2722.1,453.065 2729.5,456C 2791.11,472.82 2852.78,489.487 2914.5,506C 2956.01,518.924 2994.35,537.924 3029.5,563C 3074.5,597.139 3099,642.639 3103,699.5C 3112.55,814.938 3065.72,898.105 2962.5,949C 2905.56,974.191 2845.89,987.524 2783.5,989C 2710.68,993.19 2639.68,983.857 2570.5,961C 2537.62,949.063 2507.28,932.73 2479.5,912C 2430.03,869.097 2398.86,815.263 2386,750.5C 2383.29,737.915 2381.12,725.249 2379.5,712.5C 2468.83,712.5 2558.17,712.5 2647.5,712.5C 2653.36,738.204 2668.7,755.704 2693.5,765C 2720.67,773.674 2748.33,776.007 2776.5,772C 2788.17,770.588 2797.67,765.421 2805,756.5C 2810.3,742.926 2806.47,732.76 2793.5,726C 2787.15,722.55 2780.49,719.884 2773.5,718C 2722.83,704 2672.17,690 2621.5,676C 2577.53,663.797 2536.19,645.797 2497.5,622C 2437.93,581.863 2408.93,525.53 2410.5,453C 2412.68,344.262 2463.35,267.928 2562.5,224C 2613.52,202.898 2666.52,191.731 2721.5,190.5 Z"/></g>
<g><path style="opacity:0.997" fill="#00335f" d="M -0.5,972.5 C -0.5,972.167 -0.5,971.833 -0.5,971.5C 102.807,715.933 206.14,460.267 309.5,204.5C 397.068,203.168 484.568,203.168 572,204.5C 675.47,460.416 778.636,716.416 881.5,972.5C 787.831,972.833 694.164,972.5 600.5,971.5C 590.791,942.87 580.791,914.37 570.5,886C 483.831,885.167 397.165,885.333 310.5,886.5C 300.791,915.13 290.791,943.63 280.5,972C 186.834,972.5 93.1673,972.667 -0.5,972.5 Z M 440.5,507.5 C 460.469,564.402 480.469,621.402 500.5,678.5C 460.839,679.5 421.172,679.833 381.5,679.5C 400.77,622.024 420.436,564.691 440.5,507.5 Z"/></g>
<g><path style="opacity:0.997" fill="#dfcd1b" d="M 3131.5,207.5 C 3219.5,207.5 3307.5,207.5 3395.5,207.5C 3395.5,462.5 3395.5,717.5 3395.5,972.5C 3307.5,972.5 3219.5,972.5 3131.5,972.5C 3131.5,717.5 3131.5,462.5 3131.5,207.5 Z"/></g>
</svg>
