<?xml version="1.0" encoding="UTF-8"?>
<!DOCTYPE svg PUBLIC "-//W3C//DTD SVG 1.1//EN" "http://www.w3.org/Graphics/SVG/1.1/DTD/svg11.dtd">
<svg xmlns="http://www.w3.org/2000/svg" version="1.1" width="674px" height="649px" style="shape-rendering:geometricPrecision; text-rendering:geometricPrecision; image-rendering:optimizeQuality; fill-rule:evenodd; clip-rule:evenodd" xmlns:xlink="http://www.w3.org/1999/xlink">
<g><path style="opacity:0.993" fill="#030304" d="M 309.5,-0.5 C 327.5,-0.5 345.5,-0.5 363.5,-0.5C 443.79,6.57636 513.457,37.243 572.5,91.5C 576.773,97.4422 581.773,102.776 587.5,107.5C 637.758,161.207 666.424,224.874 673.5,298.5C 673.5,315.5 673.5,332.5 673.5,349.5C 657.526,475.979 591.86,566.146 476.5,620C 440.258,635.644 402.591,645.144 363.5,648.5C 345.5,648.5 327.5,648.5 309.5,648.5C 203.493,638.264 118.993,590.597 56,505.5C 23.8966,458.296 5.0633,406.296 -0.5,349.5C -0.5,332.5 -0.5,315.5 -0.5,298.5C 15.4738,172.021 81.1404,81.8542 196.5,28C 232.742,12.3563 270.409,2.85633 309.5,-0.5 Z"/></g>
<g><path style="opacity:1" fill="#c2f2fd" d="M 305.5,9.5 C 401.918,3.57607 486.584,31.7427 559.5,94C 612.973,142.76 646.306,202.927 659.5,274.5C 637.826,275.753 616.159,275.753 594.5,274.5C 594.666,267.825 594.5,261.158 594,254.5C 594.529,249.357 592.362,247.524 587.5,249C 570.244,257.803 557.744,253.303 550,235.5C 547.296,228.391 545.629,221.058 545,213.5C 544.333,203.5 544.333,193.5 545,183.5C 548.564,160.617 552.397,137.783 556.5,115C 556.355,114.228 556.022,113.561 555.5,113C 554.167,112.833 552.833,112.667 551.5,112.5C 546.517,113.423 541.517,113.59 536.5,113C 533.829,111.75 531.663,109.917 530,107.5C 525.256,94.9695 523.256,81.9695 524,68.5C 509.123,64.3751 494.289,64.5418 479.5,69C 477,70.8333 474.5,72.6667 472,74.5C 467.249,82.3374 462.249,90.004 457,97.5C 452.251,86.4165 444.417,78.2498 433.5,73C 425.049,69.6082 416.716,65.9415 408.5,62C 404.281,59.448 401.114,55.948 399,51.5C 398.449,40.3147 396.782,29.3147 394,18.5C 393.653,16.8198 392.653,15.8198 391,15.5C 380.929,21.1198 370.762,26.6198 360.5,32C 349.06,39.1077 340.893,48.941 336,61.5C 332.738,73.9524 329.071,86.2858 325,98.5C 318.275,107.56 311.942,116.893 306,126.5C 291.42,112.359 280.587,95.6919 273.5,76.5C 252.967,75.9556 234.633,82.1223 218.5,95C 213,99.8333 207.5,104.667 202,109.5C 202.237,120.353 199.57,130.353 194,139.5C 191.106,142.361 187.939,144.861 184.5,147C 176.597,150.533 169.097,154.699 162,159.5C 159.441,172.077 157.441,184.744 156,197.5C 155.332,201.672 153.498,205.172 150.5,208C 142.719,208.289 135.719,205.956 129.5,201C 127.741,200.202 126.074,200.369 124.5,201.5C 117.603,213.792 107.603,222.625 94.5,228C 89.1887,231.991 85.3553,237.157 83,243.5C 81.5074,250.794 80.3407,258.127 79.5,265.5C 57.8271,265.492 36.1604,265.159 14.5,264.5C 28.4234,196.471 61.09,139.304 112.5,93C 167.94,44.9549 232.273,17.1215 305.5,9.5 Z"/></g>
<g><path style="opacity:1" fill="#e4f8fb" d="M 105.5,265.5 C 98.4163,266.126 91.7496,265.459 85.5,263.5C 86.5511,254.852 88.7178,246.518 92,238.5C 93.5,237 95,235.5 96.5,234C 109.683,228.237 120.35,219.404 128.5,207.5C 135.548,213.239 143.548,215.406 152.5,214C 158.468,209.819 161.635,203.986 162,196.5C 163.444,185.054 165.444,173.721 168,162.5C 176.408,158.381 184.574,153.881 192.5,149C 203.14,139.67 207.974,127.837 207,113.5C 223.772,94.864 244.606,84.364 269.5,82C 277.439,101.889 289.106,119.222 304.5,134C 306.259,134.798 307.926,134.631 309.5,133.5C 312.853,123.988 318.353,115.988 326,109.5C 332.791,95.4597 337.791,80.793 341,65.5C 344.291,56.4145 349.458,48.5812 356.5,42C 367.003,35.5807 377.67,29.4141 388.5,23.5C 389.79,25.6565 390.624,27.9899 391,30.5C 391.501,37.5159 392.168,44.5159 393,51.5C 394.433,57.8795 397.933,62.7128 403.5,66C 416.675,71.387 429.342,77.7203 441.5,85C 447.423,90.6762 451.423,97.5096 453.5,105.5C 455.949,106.91 458.116,106.576 460,104.5C 465.501,96.8364 470.501,88.8364 475,80.5C 479.069,75.7146 484.236,72.8812 490.5,72C 499.849,71.3897 509.183,71.5564 518.5,72.5C 517.735,85.2397 519.568,97.573 524,109.5C 530.155,118.485 538.655,121.818 549.5,119.5C 545.756,141.786 542.256,164.119 539,186.5C 535.654,207.67 538.988,227.67 549,246.5C 559.552,259.877 572.718,263.21 588.5,256.5C 588.808,262.425 588.475,268.259 587.5,274C 443.829,272.346 300.162,270.013 156.5,267C 153.928,262.534 151.094,262.367 148,266.5C 144.871,261.074 141.371,255.907 137.5,251C 129.162,249.498 120.828,248.998 112.5,249.5C 110.116,254.923 107.783,260.256 105.5,265.5 Z"/></g>
<g><path style="opacity:0.102" fill="#404040" d="M 572.5,91.5 C 578.227,96.2244 583.227,101.558 587.5,107.5C 581.773,102.776 576.773,97.4422 572.5,91.5 Z"/></g>
<g><path style="opacity:1" fill="#020101" d="M 235.5,102.5 C 243.507,102.334 251.507,102.5 259.5,103C 261.002,103.583 262.335,104.416 263.5,105.5C 281.762,150.954 299.428,196.62 316.5,242.5C 316.378,244.791 315.545,246.791 314,248.5C 310.113,252.387 306.279,256.221 302.5,260C 273.821,260.756 245.154,260.423 216.5,259C 215.426,258.261 214.759,257.261 214.5,256C 218.518,246.131 223.185,236.631 228.5,227.5C 240.783,226.52 253.116,226.187 265.5,226.5C 258.217,208.6 250.384,190.933 242,173.5C 228.682,201.805 215.182,229.972 201.5,258C 185.5,258.667 169.5,258.667 153.5,258C 152.426,257.261 151.759,256.261 151.5,255C 177.12,207.595 202.62,160.095 228,112.5C 229.803,108.523 232.303,105.189 235.5,102.5 Z"/></g>
<g><path style="opacity:1" fill="#030202" d="M 468.5,106.5 C 485.18,106.524 501.846,107.024 518.5,108C 519,108.5 519.5,109 520,109.5C 519.898,160.169 519.232,210.836 518,261.5C 517.626,262.416 517.126,263.25 516.5,264C 499.833,264.667 483.167,264.667 466.5,264C 465.667,263.167 464.833,262.333 464,261.5C 463.971,211.162 464.637,160.828 466,110.5C 466.662,109.016 467.496,107.683 468.5,106.5 Z"/></g>
<g><path style="opacity:1" fill="#1c1919" d="M 431.5,199.5 C 411.329,200.167 390.996,200.833 370.5,201.5C 369.363,210.118 369.196,218.785 370,227.5C 370.5,228 371,228.5 371.5,229C 396.179,229.264 420.845,229.931 445.5,231C 446.416,231.374 447.25,231.874 448,232.5C 448.667,241.833 448.667,251.167 448,260.5C 447.167,261.333 446.333,262.167 445.5,263C 408.835,263.019 372.168,262.685 335.5,262C 334.5,261.167 333.5,260.333 332.5,259.5C 332.068,208.527 332.902,157.527 335,106.5C 335.5,106 336,105.5 336.5,105C 373.836,105.113 411.169,105.78 448.5,107C 449,107.5 449.5,108 450,108.5C 450.667,117.833 450.667,127.167 450,136.5C 449.167,137.333 448.333,138.167 447.5,139C 443.167,139.167 438.833,139.333 434.5,139.5C 413.508,138.673 392.508,138.34 371.5,138.5C 371.182,148.083 371.515,157.583 372.5,167C 391.833,167.333 411.167,167.667 430.5,168C 431.333,168.833 432.167,169.667 433,170.5C 433.667,179.833 433.667,189.167 433,198.5C 432.617,199.056 432.117,199.389 431.5,199.5 Z"/></g>
<g><path style="opacity:1" fill="#000000" d="M 431.5,199.5 C 411.165,199.021 390.832,198.855 370.5,199C 370,199.5 369.5,200 369,200.5C 368.333,210.167 368.333,219.833 369,229.5C 371.405,230.274 373.905,230.774 376.5,231C 399.521,231.141 422.521,231.807 445.5,233C 446.833,242.333 446.833,251.667 445.5,261C 408.411,261.562 371.411,260.895 334.5,259C 333.845,253.746 333.512,248.412 333.5,243C 334.401,197.489 335.401,151.989 336.5,106.5C 373.546,106.537 410.546,107.203 447.5,108.5C 448.817,118.06 448.817,127.56 447.5,137C 428.163,137.533 408.83,137.367 389.5,136.5C 383.5,136.667 377.5,136.833 371.5,137C 371,137.5 370.5,138 370,138.5C 369.182,148.411 369.349,158.244 370.5,168C 390.524,168.993 410.524,169.826 430.5,170.5C 431.498,180.144 431.832,189.81 431.5,199.5 Z"/></g>
<g><path style="opacity:1" fill="#7d7d7d" d="M 117.5,254.5 C 123.155,255.249 128.822,255.915 134.5,256.5C 134.856,264.238 134.356,271.905 133,279.5C 127.31,271.446 122.144,263.113 117.5,254.5 Z"/></g>
<g><path style="opacity:1" fill="#7d7d7d" d="M 114.5,259.5 C 116.136,260.749 117.303,262.416 118,264.5C 121.167,272.833 124.333,281.167 127.5,289.5C 127.167,289.833 126.833,290.167 126.5,290.5C 121.091,286.046 115.591,281.713 110,277.5C 109.333,275.5 109.333,273.5 110,271.5C 111.791,267.589 113.291,263.589 114.5,259.5 Z"/></g>
<g><path style="opacity:1" fill="#717171" d="M 136.5,260.5 C 138.637,263.493 140.637,266.66 142.5,270C 140.833,271.167 139.167,272.333 137.5,273.5C 136.508,269.217 136.174,264.884 136.5,260.5 Z"/></g>
<g><path style="opacity:1" fill="#778283" d="M 85.5,263.5 C 91.7496,265.459 98.4163,266.126 105.5,265.5C 98.6866,266.491 91.6866,266.825 84.5,266.5C 84.2627,265.209 84.596,264.209 85.5,263.5 Z"/></g>
<g><path style="opacity:1" fill="#698aa6" d="M 29.5,269.5 C 24.1667,269.5 18.8333,269.5 13.5,269.5C 13.7373,270.791 13.404,271.791 12.5,272.5C 12.5,271.167 12.5,269.833 12.5,268.5C 18.358,268.178 24.0247,268.511 29.5,269.5 Z"/></g>
<g><path style="opacity:1" fill="#767676" d="M 119.5,263.5 C 123.804,269.321 127.97,275.321 132,281.5C 132.279,284.385 131.612,287.052 130,289.5C 126.396,280.849 122.896,272.183 119.5,263.5 Z"/></g>
<g><path style="opacity:1" fill="#e3f7fa" d="M 83.5,270.5 C 90.1998,270.17 96.8665,270.503 103.5,271.5C 102.515,273.098 102.349,274.765 103,276.5C 105.469,284.242 108.136,291.908 111,299.5C 111.785,301.286 112.951,302.786 114.5,304C 118.874,306.181 122.874,308.848 126.5,312C 126.122,313.635 125.456,315.135 124.5,316.5C 115.382,313.294 106.382,309.794 97.5,306C 90.9742,303.474 86.4742,298.974 84,292.5C 83.5003,285.174 83.3337,277.841 83.5,270.5 Z"/></g>
<g><path style="opacity:1" fill="#e7fbfe" d="M 159.5,271.5 C 301.838,273.582 444.171,275.915 586.5,278.5C 584.738,284.691 581.904,290.358 578,295.5C 570.626,301.206 564.293,307.873 559,315.5C 554.805,325.086 550.805,334.752 547,344.5C 544.795,347.04 542.295,349.207 539.5,351C 528.236,353.047 519.069,358.547 512,367.5C 500.327,385.162 491.327,404.162 485,424.5C 480.259,424.764 475.425,424.931 470.5,425C 461.124,429.404 451.79,433.904 442.5,438.5C 433.752,426.312 425.252,426.645 417,439.5C 409.561,450.315 405.394,462.315 404.5,475.5C 396.472,475.831 388.472,475.498 380.5,474.5C 369.134,455.63 357.967,436.63 347,417.5C 339.691,398.57 332.191,379.737 324.5,361C 317.927,357.372 311.261,354.372 304.5,352C 303.299,352.903 302.465,354.069 302,355.5C 300.491,363.202 298.825,370.868 297,378.5C 283.833,368.667 270.667,358.833 257.5,349C 233.208,338.403 208.874,327.903 184.5,317.5C 175.614,302.389 167.281,287.056 159.5,271.5 Z"/></g>
<g><path style="opacity:1" fill="#7c7c7c" d="M 111.5,281.5 C 116.957,286.067 122.623,290.4 128.5,294.5C 129.624,298 129.124,301.333 127,304.5C 123.492,302.413 120.158,300.08 117,297.5C 114.866,292.241 113.033,286.908 111.5,281.5 Z"/></g>
<g><path style="opacity:1" fill="#97c8f1" d="M 29.5,269.5 C 45.5,269.5 61.5,269.5 77.5,269.5C 77.3336,277.507 77.5003,285.507 78,293.5C 79.3194,297.472 81.1528,301.139 83.5,304.5C 59.0056,305.498 34.339,305.831 9.5,305.5C 9.5,302.5 9.5,299.5 9.5,296.5C 9.85497,288.38 10.855,280.38 12.5,272.5C 13.404,271.791 13.7373,270.791 13.5,269.5C 18.8333,269.5 24.1667,269.5 29.5,269.5 Z"/></g>
<g><path style="opacity:1" fill="#8fbfe7" d="M 9.5,296.5 C 9.5,299.5 9.5,302.5 9.5,305.5C 34.339,305.831 59.0056,305.498 83.5,304.5C 95.7026,311.931 108.703,317.765 122.5,322C 123.123,326.145 122.79,330.312 121.5,334.5C 112.167,334.5 102.833,334.5 93.5,334.5C 89.4386,329.27 84.6053,324.937 79,321.5C 68.1521,322.901 57.3188,324.401 46.5,326C 44.3549,330.532 43.0215,335.365 42.5,340.5C 31.1667,340.5 19.8333,340.5 8.5,340.5C 8.17065,325.657 8.50398,310.99 9.5,296.5 Z"/></g>
<g><path style="opacity:1" fill="#94c4ed" d="M 662.5,304.5 C 662.5,309.5 662.5,314.5 662.5,319.5C 629.833,319.5 597.167,319.5 564.5,319.5C 564.709,318.078 565.209,316.745 566,315.5C 572.279,309.711 578.279,303.711 584,297.5C 588.464,291.905 591.297,285.571 592.5,278.5C 614.834,278.911 637.167,279.411 659.5,280C 661.309,288.03 662.309,296.196 662.5,304.5 Z"/></g>
<g><path style="opacity:1" fill="#8dbde5" d="M 564.5,319.5 C 597.167,319.5 629.833,319.5 662.5,319.5C 662.5,325.833 662.5,332.167 662.5,338.5C 627.328,338.371 592.328,337.704 557.5,336.5C 558.504,330.174 560.838,324.508 564.5,319.5 Z"/></g>
<g><path style="opacity:1" fill="#7d7d7d" d="M 68.5,328.5 C 72.4367,328.207 76.27,328.54 80,329.5C 83.3707,338.404 86.8707,347.238 90.5,356C 77.6803,348.233 65.0137,339.899 52.5,331C 58.005,330.339 63.3383,329.506 68.5,328.5 Z"/></g>
<g><path style="opacity:1" fill="#7d7d7d" d="M 49.5,333.5 C 50.2389,333.369 50.9056,333.536 51.5,334C 60.4696,343.97 69.8029,353.637 79.5,363C 68.734,361.256 58.0674,358.756 47.5,355.5C 47.1667,354.667 46.8333,353.833 46.5,353C 47.8262,346.538 48.8262,340.038 49.5,333.5 Z"/></g>
<g><path style="opacity:1" fill="#7d7d7d" d="M 84.5,334.5 C 90.1031,340.605 95.9364,346.605 102,352.5C 102.333,356.833 102.667,361.167 103,365.5C 110.03,372.865 117.364,379.865 125,386.5C 126.422,392.355 127.922,398.188 129.5,404C 129.167,404.5 128.833,405 128.5,405.5C 117.316,395.148 105.982,384.981 94.5,375C 89.8333,374.667 85.1667,374.333 80.5,374C 73.3372,370.253 66.3372,366.253 59.5,362C 66.6426,362.893 73.8093,364.059 81,365.5C 81.8333,365.167 82.6667,364.833 83.5,364.5C 74.6811,355.181 65.6811,346.014 56.5,337C 68.9071,344.48 81.0737,352.646 93,361.5C 93.6667,360.167 93.6667,358.833 93,357.5C 90.1531,349.812 87.3198,342.146 84.5,334.5 Z"/></g>
<g><path style="opacity:1" fill="#84b4d9" d="M 93.5,334.5 C 102.833,334.5 112.167,334.5 121.5,334.5C 119.503,343.481 117.503,352.481 115.5,361.5C 116.76,364.423 117.26,367.423 117,370.5C 114.333,367.833 111.667,365.167 109,362.5C 108.667,358.5 108.333,354.5 108,350.5C 103.329,344.997 98.496,339.664 93.5,334.5 Z"/></g>
<g><path style="opacity:1" fill="#86b6dc" d="M 662.5,304.5 C 663.947,321.765 663.614,339.098 661.5,356.5C 621.996,356.832 582.663,356.499 543.5,355.5C 545.907,354.206 548.074,352.539 550,350.5C 552.798,345.899 555.298,341.232 557.5,336.5C 592.328,337.704 627.328,338.371 662.5,338.5C 662.5,332.167 662.5,325.833 662.5,319.5C 662.5,314.5 662.5,309.5 662.5,304.5 Z"/></g>
<g><path style="opacity:1" fill="#81b1d6" d="M 543.5,355.5 C 582.663,356.499 621.996,356.832 661.5,356.5C 660.826,363.892 659.826,371.225 658.5,378.5C 609.997,378.289 561.664,377.622 513.5,376.5C 520.153,364.865 530.153,357.865 543.5,355.5 Z"/></g>
<g><path style="opacity:1" fill="#7caacf" d="M 513.5,376.5 C 561.664,377.622 609.997,378.289 658.5,378.5C 657.592,384.627 656.258,390.627 654.5,396.5C 637.991,396.83 621.658,396.496 605.5,395.5C 608.24,390.963 612.24,388.13 617.5,387C 619.527,385.604 619.86,383.938 618.5,382C 612.833,381.333 607.167,381.333 601.5,382C 592.94,387.111 584.274,391.944 575.5,396.5C 551.49,396.658 527.49,396.324 503.5,395.5C 506.073,388.685 509.406,382.351 513.5,376.5 Z"/></g>
<g><path style="opacity:1" fill="#7dacd1" d="M 8.5,340.5 C 19.8333,340.5 31.1667,340.5 42.5,340.5C 41.5659,345.671 40.5659,350.837 39.5,356C 39.7591,357.261 40.4258,358.261 41.5,359C 53.9957,365.747 66.3291,372.747 78.5,380C 83.1667,380.333 87.8333,380.667 92.5,381C 96.3954,385.065 100.395,388.898 104.5,392.5C 74.9979,393.563 45.3313,393.563 15.5,392.5C 12.0791,375.309 9.74577,357.975 8.5,340.5 Z"/></g>
<g><path style="opacity:1" fill="#fbfbfb" d="M 150.5,390.5 C 158.798,392.658 167.132,394.658 175.5,396.5C 175.666,403.508 175.5,410.508 175,417.5C 169.89,422.9 165.39,428.733 161.5,435C 164.736,442.874 168.069,450.708 171.5,458.5C 189.346,467.59 207.346,476.423 225.5,485C 215.882,487.655 206.215,490.155 196.5,492.5C 179.796,476.96 163.296,461.294 147,445.5C 143.217,433.482 139.051,421.649 134.5,410C 139.654,403.347 144.987,396.847 150.5,390.5 Z"/></g>
<g><path style="opacity:1" fill="#74a2c5" d="M 503.5,395.5 C 527.49,396.324 551.49,396.658 575.5,396.5C 555.853,408.661 535.853,420.327 515.5,431.5C 507.581,430.062 499.748,428.395 492,426.5C 491.516,424.087 491.85,421.754 493,419.5C 495.844,411.109 499.344,403.109 503.5,395.5 Z"/></g>
<g><path style="opacity:1" fill="#74a3c6" d="M 15.5,392.5 C 45.3313,393.563 74.9979,393.563 104.5,392.5C 113.463,400.293 122.296,408.293 131,416.5C 131.813,418.436 132.313,420.436 132.5,422.5C 131.306,423.777 129.64,424.444 127.5,424.5C 93.1788,423.534 58.8455,423.201 24.5,423.5C 21.3422,413.201 18.3422,402.867 15.5,392.5 Z"/></g>
<g><path style="opacity:1" fill="#d7740c" d="M 533.5,472.5 C 532.508,465.352 532.175,458.019 532.5,450.5C 548.762,436.685 565.096,422.851 581.5,409C 582.167,408.333 582.833,408.333 583.5,409C 569.971,422.195 556.804,435.695 544,449.5C 539.94,456.95 536.44,464.617 533.5,472.5 Z"/></g>
<g><path style="opacity:1" fill="#719fc2" d="M 605.5,395.5 C 621.658,396.496 637.991,396.83 654.5,396.5C 651.84,409.146 648.173,421.479 643.5,433.5C 618.661,433.831 593.994,433.498 569.5,432.5C 580.801,419.531 592.801,407.198 605.5,395.5 Z"/></g>
<g><path style="opacity:1" fill="#6c9abc" d="M 132.5,422.5 C 135.963,432.219 139.63,441.886 143.5,451.5C 107.671,451.897 71.6706,451.897 35.5,451.5C 31.44,442.32 27.7734,432.987 24.5,423.5C 58.8455,423.201 93.1788,423.534 127.5,424.5C 129.64,424.444 131.306,423.777 132.5,422.5 Z"/></g>
<g><path style="opacity:1" fill="#6692b3" d="M 428.5,435.5 C 433.297,435.954 436.297,438.621 437.5,443.5C 432.482,448.684 427.649,454.017 423,459.5C 410.075,482.94 407.409,481.607 415,455.5C 418.285,447.903 422.785,441.236 428.5,435.5 Z"/></g>
<g><path style="opacity:1" fill="#eaeaea" d="M 483.5,444.5 C 488.786,445.985 493.786,448.152 498.5,451C 493.667,455.833 488.833,460.667 484,465.5C 480.434,461.934 476.934,458.434 473.5,455C 477.015,451.652 480.348,448.152 483.5,444.5 Z"/></g>
<g><path style="opacity:1" fill="#6a97b9" d="M 569.5,432.5 C 593.994,433.498 618.661,433.831 643.5,433.5C 640.503,440.829 637.503,448.162 634.5,455.5C 611.327,455.642 588.16,455.309 565,454.5C 559.454,454.495 554.288,453.828 549.5,452.5C 555.833,445.5 562.5,438.833 569.5,432.5 Z"/></g>
<g><path style="opacity:1" fill="#121212" d="M 483.5,447.5 C 487.053,448.517 490.386,450.017 493.5,452C 490.667,454.833 487.833,457.667 485,460.5C 482.697,458.607 480.53,456.607 478.5,454.5C 479.931,451.961 481.597,449.628 483.5,447.5 Z"/></g>
<g><path style="opacity:1" fill="#6491b2" d="M 35.5,451.5 C 71.6706,451.897 107.671,451.897 143.5,451.5C 151.526,459.194 159.526,466.861 167.5,474.5C 127.673,474.688 87.6735,474.688 47.5,474.5C 43.245,466.991 39.245,459.324 35.5,451.5 Z"/></g>
<g><path style="opacity:1" fill="#6491b2" d="M 549.5,452.5 C 554.288,453.828 559.454,454.495 565,454.5C 588.16,455.309 611.327,455.642 634.5,455.5C 630.911,463.689 626.577,471.355 621.5,478.5C 593.511,478.195 565.844,477.195 538.5,475.5C 541.93,467.642 545.597,459.976 549.5,452.5 Z"/></g>
<g><path style="opacity:1" fill="#fdfdfd" d="M 445.5,463.5 C 451.02,466.426 456.686,469.093 462.5,471.5C 463.076,475.655 462.242,479.655 460,483.5C 450.005,487.721 439.839,491.555 429.5,495C 429.043,495.414 428.709,495.914 428.5,496.5C 430.497,500.657 431.997,504.99 433,509.5C 439.019,515.02 445.186,520.353 451.5,525.5C 435.015,540.817 418.682,556.317 402.5,572C 376.205,574.118 349.871,575.118 323.5,575C 304.045,567.438 284.711,559.605 265.5,551.5C 275.226,541.77 285.226,532.437 295.5,523.5C 320.331,528.019 345.331,529.853 370.5,529C 371.966,533.732 373.633,538.398 375.5,543C 382.192,543.831 388.858,543.664 395.5,542.5C 399.439,535.621 403.106,528.621 406.5,521.5C 404.661,514.815 402.327,508.315 399.5,502C 401.403,497.458 403.403,492.958 405.5,488.5C 409.384,487.159 413.384,486.325 417.5,486C 427.021,478.636 436.355,471.136 445.5,463.5 Z"/></g>
<g><path style="opacity:1" fill="#381e03" d="M 532.5,450.5 C 532.175,458.019 532.508,465.352 533.5,472.5C 533.44,473.043 533.107,473.376 532.5,473.5C 531.18,465.677 531.18,458.01 532.5,450.5 Z"/></g>
<g><path style="opacity:1" fill="#5c88a7" d="M 47.5,474.5 C 87.6735,474.688 127.673,474.688 167.5,474.5C 173.658,479.76 179.658,485.26 185.5,491C 163.161,486.631 140.828,481.797 118.5,476.5C 108.784,478.119 99.1176,479.952 89.5,482C 89,482.5 88.5,483 88,483.5C 87.1991,489.165 86.8658,494.832 87,500.5C 88.9263,502.539 91.093,504.206 93.5,505.5C 85.3501,506.493 77.0168,506.826 68.5,506.5C 60.5188,496.554 53.5188,485.888 47.5,474.5 Z"/></g>
<g><path style="opacity:1" fill="#5b87a6" d="M 538.5,475.5 C 565.844,477.195 593.511,478.195 621.5,478.5C 616.076,489.692 609.41,500.025 601.5,509.5C 571.354,510.806 541.354,510.806 511.5,509.5C 520.507,498.161 529.507,486.828 538.5,475.5 Z"/></g>
<g><path style="opacity:1" fill="#507c9a" d="M 511.5,509.5 C 541.354,510.806 571.354,510.806 601.5,509.5C 592.253,522.084 581.919,533.75 570.5,544.5C 536.165,544.667 501.832,544.5 467.5,544C 458.99,543.829 450.657,543.329 442.5,542.5C 447.298,538.203 451.965,533.703 456.5,529C 473.561,523.869 490.561,518.535 507.5,513C 508.705,511.624 510.038,510.458 511.5,509.5 Z"/></g>
<g><path style="opacity:1" fill="#4c7894" d="M 93.5,505.5 C 118.5,522.833 143.5,540.167 168.5,557.5C 151.002,558.25 133.335,558.25 115.5,557.5C 97.3633,542.7 81.6966,525.7 68.5,506.5C 77.0168,506.826 85.3501,506.493 93.5,505.5 Z"/></g>
<g><path style="opacity:1" fill="#497591" d="M 442.5,542.5 C 450.657,543.329 458.99,543.829 467.5,544C 501.832,544.5 536.165,544.667 570.5,544.5C 565.463,550.538 559.797,555.871 553.5,560.5C 510.986,560.941 468.652,560.274 426.5,558.5C 431.5,552.833 436.833,547.5 442.5,542.5 Z"/></g>
<g><path style="opacity:1" fill="#446f8b" d="M 426.5,558.5 C 468.652,560.274 510.986,560.941 553.5,560.5C 547.238,566.303 540.571,571.636 533.5,576.5C 491.987,576.871 450.654,576.204 409.5,574.5C 414.537,568.462 420.203,563.129 426.5,558.5 Z"/></g>
<g><path style="opacity:1" fill="#426c87" d="M 115.5,557.5 C 133.335,558.25 151.002,558.25 168.5,557.5C 199.102,559.498 229.768,560.998 260.5,562C 262.31,558.761 264.81,557.928 268,559.5C 268.029,562.367 268.862,564.867 270.5,567C 276.186,567.3 281.853,567.3 287.5,567C 296.874,570.736 306.207,574.569 315.5,578.5C 317.297,582.687 318.63,587.02 319.5,591.5C 266.17,590.794 212.836,590.461 159.5,590.5C 145.828,582.327 132.828,573.16 120.5,563C 118.627,561.296 116.96,559.463 115.5,557.5 Z"/></g>
<g><path style="opacity:1" fill="#406a85" d="M 409.5,574.5 C 450.654,576.204 491.987,576.871 533.5,576.5C 525.881,582.316 517.881,587.65 509.5,592.5C 471.33,592.558 433.164,592.224 395,591.5C 383.479,591.499 372.313,590.832 361.5,589.5C 362.42,586.492 363.754,583.659 365.5,581C 378.801,579.759 392.135,578.759 405.5,578C 406.705,576.624 408.038,575.458 409.5,574.5 Z"/></g>
<g><path style="opacity:1" fill="#687172" d="M 346.5,581.5 C 350.351,580.191 354.351,580.191 358.5,581.5C 358.376,582.107 358.043,582.44 357.5,582.5C 354.038,581.518 350.371,581.185 346.5,581.5 Z"/></g>
<g><path style="opacity:1" fill="#e2f6f9" d="M 346.5,581.5 C 350.371,581.185 354.038,581.518 357.5,582.5C 352.763,593.879 347.93,605.213 343,616.5C 331.929,607.518 325.429,595.852 323.5,581.5C 331.167,581.5 338.833,581.5 346.5,581.5 Z"/></g>
<g><path style="opacity:1" fill="#3b6580" d="M 159.5,590.5 C 212.836,590.461 266.17,590.794 319.5,591.5C 321.48,596.424 323.48,601.424 325.5,606.5C 279.998,607.599 234.332,607.599 188.5,606.5C 178.343,601.924 168.677,596.591 159.5,590.5 Z"/></g>
<g><path style="opacity:1" fill="#3b6580" d="M 361.5,589.5 C 372.313,590.832 383.479,591.499 395,591.5C 433.164,592.224 471.33,592.558 509.5,592.5C 500.143,598.848 490.143,604.181 479.5,608.5C 447.498,608.667 415.498,608.5 383.5,608C 373.658,607.83 363.991,607.33 354.5,606.5C 356.039,600.434 358.372,594.767 361.5,589.5 Z"/></g>
<g><path style="opacity:1" fill="#366079" d="M 188.5,606.5 C 234.332,607.599 279.998,607.599 325.5,606.5C 330.526,613.859 336.859,619.859 344.5,624.5C 345.442,624.392 346.275,624.059 347,623.5C 349.232,617.607 351.732,611.941 354.5,606.5C 363.991,607.33 373.658,607.83 383.5,608C 415.498,608.5 447.498,608.667 479.5,608.5C 464.261,616.25 448.261,622.25 431.5,626.5C 366.498,626.492 301.498,626.159 236.5,625.5C 219.77,620.794 203.77,614.461 188.5,606.5 Z"/></g>
<g><path style="opacity:1" fill="#315a72" d="M 236.5,625.5 C 301.498,626.159 366.498,626.492 431.5,626.5C 383.426,640.696 334.426,644.196 284.5,637C 268.01,634.607 252.01,630.774 236.5,625.5 Z"/></g>
</svg>
