<?xml version="1.0" encoding="UTF-8"?>
<!DOCTYPE svg PUBLIC "-//W3C//DTD SVG 1.1//EN" "http://www.w3.org/Graphics/SVG/1.1/DTD/svg11.dtd">
<svg xmlns="http://www.w3.org/2000/svg" version="1.1" width="234px" height="102px" style="shape-rendering:geometricPrecision; text-rendering:geometricPrecision; image-rendering:optimizeQuality; fill-rule:evenodd; clip-rule:evenodd" xmlns:xlink="http://www.w3.org/1999/xlink">
<g><path style="opacity:1" fill="#525352" d="M 115.5,-0.5 C 115.833,-0.5 116.167,-0.5 116.5,-0.5C 116.315,0.170143 115.981,0.170143 115.5,-0.5 Z"/></g>
<g><path style="opacity:1" fill="#18233a" d="M 54.5,1.5 C 68.3455,-1.69906 77.3455,3.63427 81.5,17.5C 78.4174,14.2362 75.4174,10.7362 72.5,7C 69.2706,4.38386 65.6039,2.88386 61.5,2.5C 59.3926,1.53178 57.0593,1.19845 54.5,1.5 Z"/></g>
<g><path style="opacity:1" fill="#80a643" d="M 83.5,25.5 C 87.0816,27.2137 90.2483,29.5471 93,32.5C 96.1908,37.6031 98.6908,42.9364 100.5,48.5C 100.782,54.7518 99.7818,60.7518 97.5,66.5C 93.8875,70.7792 89.8875,74.7792 85.5,78.5C 85.1667,77.5 84.5,76.8333 83.5,76.5C 95.3245,66.1624 98.4912,53.4957 93,38.5C 91.0569,34.5767 88.2236,31.5767 84.5,29.5C 83.7659,28.2921 83.4326,26.9587 83.5,25.5 Z"/></g>
<g><path style="opacity:1" fill="#2d4d8b" d="M 61.5,2.5 C 65.6039,2.88386 69.2706,4.38386 72.5,7C 75.4174,10.7362 78.4174,14.2362 81.5,17.5C 82.7384,19.2143 83.405,21.2143 83.5,23.5C 83.5,24.1667 83.5,24.8333 83.5,25.5C 83.4326,26.9587 83.7659,28.2921 84.5,29.5C 84.6698,38.5552 81.6698,46.2219 75.5,52.5C 73.9519,52.1788 73.2852,51.1788 73.5,49.5C 78.5915,43.1616 80.9248,35.8283 80.5,27.5C 80.8799,25.302 80.2132,23.6354 78.5,22.5C 75.8388,9.15241 67.8388,3.15241 54.5,4.5C 56.2789,2.65649 58.6122,1.98983 61.5,2.5 Z"/></g>
<g><path style="opacity:1" fill="#2a467c" d="M 54.5,1.5 C 57.0593,1.19845 59.3926,1.53178 61.5,2.5C 58.6122,1.98983 56.2789,2.65649 54.5,4.5C 40.6356,11.2279 34.9689,22.2279 37.5,37.5C 36.4324,38.4345 35.099,38.7678 33.5,38.5C 30.914,20.6673 37.914,8.33399 54.5,1.5 Z"/></g>
<g><path style="opacity:1" fill="#83a643" d="M 78.5,22.5 C 80.2132,23.6354 80.8799,25.302 80.5,27.5C 80.1667,27.5 79.8333,27.5 79.5,27.5C 75.9789,24.2366 71.9789,23.7366 67.5,26C 62.5487,28.6176 58.5487,32.2842 55.5,37C 56.0442,37.7172 56.7109,38.2172 57.5,38.5C 57.5,39.1667 57.1667,39.5 56.5,39.5C 55.6618,39.8417 55.3284,40.5084 55.5,41.5C 54.8826,41.3893 54.3826,41.056 54,40.5C 53.3333,41.8333 52.6667,43.1667 52,44.5C 51.8213,48.0252 51.3213,51.3586 50.5,54.5C 50.1667,53.8333 49.8333,53.1667 49.5,52.5C 49.4595,49.1194 49.7929,45.7861 50.5,42.5C 51.6737,41.4863 52.3404,40.153 52.5,38.5C 52.8333,37.8333 53.1667,37.1667 53.5,36.5C 58.8153,26.3444 67.1487,21.6777 78.5,22.5 Z"/></g>
<g><path style="opacity:1" fill="#2f3b1d" d="M 79.5,27.5 C 69.6683,26.4156 62.335,30.0823 57.5,38.5C 56.7109,38.2172 56.0442,37.7172 55.5,37C 58.5487,32.2842 62.5487,28.6176 67.5,26C 71.9789,23.7366 75.9789,24.2366 79.5,27.5 Z"/></g>
<g><path style="opacity:1" fill="#435527" d="M 83.5,23.5 C 94.8646,27.8801 100.531,36.2134 100.5,48.5C 98.6908,42.9364 96.1908,37.6031 93,32.5C 90.2483,29.5471 87.0816,27.2137 83.5,25.5C 83.5,24.8333 83.5,24.1667 83.5,23.5 Z"/></g>
<g><path style="opacity:1" fill="#3a161a" d="M 52.5,38.5 C 52.3404,40.153 51.6737,41.4863 50.5,42.5C 49.376,41.1914 47.876,40.5247 46,40.5C 44.175,40.9434 42.3417,41.2767 40.5,41.5C 39.5,41.1667 38.8333,40.5 38.5,39.5C 43.0704,38.559 47.737,38.2256 52.5,38.5 Z"/></g>
<g><path style="opacity:1" fill="#646464" d="M 116.5,39.5 C 118.451,39.2267 119.951,39.8934 121,41.5C 123.76,39.297 126.76,38.9637 130,40.5C 131.388,45.3722 131.888,50.3722 131.5,55.5C 130.167,55.5 128.833,55.5 127.5,55.5C 127.665,51.8183 127.499,48.1516 127,44.5C 124.806,41.9825 122.806,42.3159 121,45.5C 120.502,48.8168 120.335,52.1501 120.5,55.5C 119.167,55.5 117.833,55.5 116.5,55.5C 116.5,50.1667 116.5,44.8333 116.5,39.5 Z"/></g>
<g><path style="opacity:1" fill="#646464" d="M 138.5,39.5 C 145.304,38.2214 149.304,40.8881 150.5,47.5C 150.096,52.7368 147.263,55.4034 142,55.5C 135.192,54.8935 132.526,51.2268 134,44.5C 135.025,42.313 136.525,40.6464 138.5,39.5 Z M 140.5,42.5 C 145.722,42.9446 147.389,45.6113 145.5,50.5C 141.751,53.4182 139.085,52.5849 137.5,48C 137.895,45.7516 138.895,43.9183 140.5,42.5 Z"/></g>
<g><path style="opacity:1" fill="#626263" d="M 152.5,39.5 C 154.451,39.2267 155.951,39.8934 157,41.5C 158.444,39.8446 160.278,39.178 162.5,39.5C 162.719,40.675 162.386,41.675 161.5,42.5C 159.742,43.1279 158.242,44.1279 157,45.5C 156.502,48.8168 156.335,52.1501 156.5,55.5C 155.167,55.5 153.833,55.5 152.5,55.5C 152.5,50.1667 152.5,44.8333 152.5,39.5 Z"/></g>
<g><path style="opacity:1" fill="#606060" d="M 176.5,41.5 C 176.134,42.6946 175.301,43.3613 174,43.5C 171.801,42.3546 169.635,42.3546 167.5,43.5C 170.004,45.6237 172.837,47.2904 176,48.5C 177.167,53.7008 175.001,56.0341 169.5,55.5C 166.771,55.7052 164.438,54.8718 162.5,53C 163.047,52.0754 163.713,51.2421 164.5,50.5C 166.93,52.571 169.597,52.9044 172.5,51.5C 169.996,49.3763 167.163,47.7096 164,46.5C 163.159,41.5042 165.326,39.1709 170.5,39.5C 172.841,39.3631 174.841,40.0298 176.5,41.5 Z"/></g>
<g><path style="opacity:1" fill="#5c5c5c" d="M 176.5,41.5 C 177.204,39.6558 178.537,39.1558 180.5,40C 181.996,43.1493 183.496,46.3159 185,49.5C 186.265,46.5394 187.431,43.5394 188.5,40.5C 189.689,39.5713 191.022,39.238 192.5,39.5C 190.716,47.2275 187.716,54.3942 183.5,61C 181.866,61.4935 180.199,61.6602 178.5,61.5C 178.5,60.5 178.5,59.5 178.5,58.5C 180.849,58.5417 182.182,57.3751 182.5,55C 180.862,50.233 178.862,45.733 176.5,41.5 Z"/></g>
<g><path style="opacity:1" fill="#626262" d="M 196.5,39.5 C 200.302,38.8803 203.635,39.7137 206.5,42C 205.892,42.8699 205.059,43.3699 204,43.5C 201.801,42.3546 199.635,42.3546 197.5,43.5C 200.004,45.6237 202.837,47.2904 206,48.5C 207.167,53.7008 205.001,56.0341 199.5,55.5C 196.771,55.7052 194.438,54.8718 192.5,53C 193.047,52.0754 193.713,51.2421 194.5,50.5C 196.943,52.0553 199.61,52.722 202.5,52.5C 202.5,51.5 202.5,50.5 202.5,49.5C 198.209,49.5893 195.209,47.756 193.5,44C 194.315,42.3566 195.315,40.8566 196.5,39.5 Z"/></g>
<g><path style="opacity:1" fill="#9e2738" d="M 57.5,38.5 C 63.3966,40.9479 68.3966,44.6145 72.5,49.5C 72.631,50.2389 72.4643,50.9056 72,51.5C 67.9803,45.9194 62.8136,41.9194 56.5,39.5C 57.1667,39.5 57.5,39.1667 57.5,38.5 Z"/></g>
<g><path style="opacity:1" fill="#293052" d="M 38.5,39.5 C 38.8333,40.5 39.5,41.1667 40.5,41.5C 41.8498,46.5416 44.8498,50.2083 49.5,52.5C 49.8333,53.1667 50.1667,53.8333 50.5,54.5C 49.8333,54.5 49.5,54.8333 49.5,55.5C 44.1353,52.467 40.1353,48.1337 37.5,42.5C 36.7025,42.9569 36.3691,43.6236 36.5,44.5C 35.6618,44.1583 35.3284,43.4916 35.5,42.5C 35.5,40.5 36.5,39.5 38.5,39.5 Z"/></g>
<g><path style="opacity:1" fill="#3e1a23" d="M 56.5,39.5 C 62.8136,41.9194 67.9803,45.9194 72,51.5C 72.4643,50.9056 72.631,50.2389 72.5,49.5C 72.8333,49.5 73.1667,49.5 73.5,49.5C 73.2852,51.1788 73.9519,52.1788 75.5,52.5C 76.4964,57.4626 76.6631,62.4626 76,67.5C 75.3918,69.0664 74.5585,70.3998 73.5,71.5C 75.9516,65.4776 75.9516,59.4776 73.5,53.5C 72.7025,53.9569 72.3691,54.6236 72.5,55.5C 72.1667,55.5 71.8333,55.5 71.5,55.5C 71.5,54.1667 70.8333,53.5 69.5,53.5C 69.562,51.5668 68.562,49.7335 66.5,48C 63.1474,45.4665 59.4807,43.6332 55.5,42.5C 55.5,42.1667 55.5,41.8333 55.5,41.5C 55.3284,40.5084 55.6618,39.8417 56.5,39.5 Z"/></g>
<g><path style="opacity:1" fill="#9f2939" d="M 53.5,36.5 C 53.1667,37.1667 52.8333,37.8333 52.5,38.5C 47.737,38.2256 43.0704,38.559 38.5,39.5C 36.5,39.5 35.5,40.5 35.5,42.5C 21.6237,49.9592 18.1237,60.6258 25,74.5C 36.7293,84.3816 49.5626,86.0483 63.5,79.5C 64.7383,79.81 64.7383,80.31 63.5,81C 46.6811,88.9591 32.0144,86.1257 19.5,72.5C 16.2523,64.1557 17.0856,56.1557 22,48.5C 25.4351,44.5549 29.2685,41.2216 33.5,38.5C 35.099,38.7678 36.4324,38.4345 37.5,37.5C 42.772,36.5998 48.1053,36.2665 53.5,36.5 Z"/></g>
<g><path style="opacity:1" fill="#455731" d="M 55.5,41.5 C 55.5,41.8333 55.5,42.1667 55.5,42.5C 53.8169,46.6306 53.1502,50.9639 53.5,55.5C 53.1205,56.1331 52.7871,56.7997 52.5,57.5C 51.2613,57.0576 50.2613,56.3909 49.5,55.5C 49.5,54.8333 49.8333,54.5 50.5,54.5C 51.3213,51.3586 51.8213,48.0252 52,44.5C 52.6667,43.1667 53.3333,41.8333 54,40.5C 54.3826,41.056 54.8826,41.3893 55.5,41.5 Z"/></g>
<g><path style="opacity:1" fill="#2c4a84" d="M 49.5,55.5 C 50.2613,56.3909 51.2613,57.0576 52.5,57.5C 52.7871,56.7997 53.1205,56.1331 53.5,55.5C 59.0228,55.9308 64.3561,55.2641 69.5,53.5C 70.8333,53.5 71.5,54.1667 71.5,55.5C 68.3996,58.2095 64.733,59.5429 60.5,59.5C 57.8333,59.5 55.1667,59.5 52.5,59.5C 51.8333,59.5 51.1667,59.5 50.5,59.5C 43.7498,56.4174 39.0831,51.4174 36.5,44.5C 36.3691,43.6236 36.7025,42.9569 37.5,42.5C 40.1353,48.1337 44.1353,52.467 49.5,55.5 Z"/></g>
<g><path style="opacity:1" fill="#812130" d="M 73.5,71.5 C 72.7515,73.3325 71.7515,74.9991 70.5,76.5C 69.5,76.1667 68.8333,75.5 68.5,74.5C 72.8375,68.8144 74.1709,62.4811 72.5,55.5C 72.3691,54.6236 72.7025,53.9569 73.5,53.5C 75.9516,59.4776 75.9516,65.4776 73.5,71.5 Z"/></g>
<g><path style="opacity:1" fill="#384222" d="M 52.5,59.5 C 55.1667,59.5 57.8333,59.5 60.5,59.5C 59.0484,60.3019 57.3817,60.8019 55.5,61C 58.0139,67.3456 62.3472,71.8456 68.5,74.5C 68.8333,75.5 69.5,76.1667 70.5,76.5C 71.4916,76.3284 72.1583,76.6618 72.5,77.5C 62.4667,75.4771 55.8,69.4771 52.5,59.5 Z"/></g>
<g><path style="opacity:1" fill="#83ab44" d="M 50.5,59.5 C 51.1667,59.5 51.8333,59.5 52.5,59.5C 55.8,69.4771 62.4667,75.4771 72.5,77.5C 76.2343,77.6773 79.9009,77.3439 83.5,76.5C 84.5,76.8333 85.1667,77.5 85.5,78.5C 81.0943,80.5151 76.4276,81.5151 71.5,81.5C 70.0413,81.5674 68.7079,81.2341 67.5,80.5C 66.5637,79.0256 65.2303,78.0256 63.5,77.5C 56.2284,73.6239 51.8951,67.6239 50.5,59.5 Z"/></g>
<g><path style="opacity:1" fill="#435526" d="M 97.5,66.5 C 93.0376,79.374 84.3709,84.374 71.5,81.5C 76.4276,81.5151 81.0943,80.5151 85.5,78.5C 89.8875,74.7792 93.8875,70.7792 97.5,66.5 Z"/></g>
<g><path style="opacity:1" fill="#40171c" d="M 19.5,72.5 C 32.0144,86.1257 46.6811,88.9591 63.5,81C 64.7383,80.31 64.7383,79.81 63.5,79.5C 63.5,78.8333 63.5,78.1667 63.5,77.5C 65.2303,78.0256 66.5637,79.0256 67.5,80.5C 58.6273,87.1806 48.6273,89.3473 37.5,87C 29.2616,84.742 23.2616,79.9087 19.5,72.5 Z"/></g>
</svg>
