<?xml version="1.0" encoding="UTF-8"?>
<!DOCTYPE svg PUBLIC "-//W3C//DTD SVG 1.1//EN" "http://www.w3.org/Graphics/SVG/1.1/DTD/svg11.dtd">
<svg xmlns="http://www.w3.org/2000/svg" version="1.1" width="197px" height="26px" style="shape-rendering:geometricPrecision; text-rendering:geometricPrecision; image-rendering:optimizeQuality; fill-rule:evenodd; clip-rule:evenodd" xmlns:xlink="http://www.w3.org/1999/xlink">
<g><path style="opacity:0.944" fill="#de1823" d="M 91.5,5.5 C 91.5,4.83333 91.5,4.16667 91.5,3.5C 96.6102,1.31175 101.944,0.478421 107.5,1C 111.041,1.70884 113.041,3.87551 113.5,7.5C 112.974,9.23033 111.974,10.5637 110.5,11.5C 104.384,8.68283 98.0504,6.68283 91.5,5.5 Z"/></g>
<g><path style="opacity:1" fill="#231f20" d="M 174.5,-0.5 C 175.833,-0.5 177.167,-0.5 178.5,-0.5C 178.634,1.29152 178.301,2.95819 177.5,4.5C 176.833,4.5 176.167,4.5 175.5,4.5C 173.401,3.18509 173.067,1.51843 174.5,-0.5 Z"/></g>
<g><path style="opacity:0.757" fill="#221e1f" d="M 145.5,17.5 C 145.5,18.8333 145.5,20.1667 145.5,21.5C 142.315,21.9804 139.481,21.3137 137,19.5C 136.501,15.8484 136.335,12.1817 136.5,8.5C 134.5,8.83333 132.5,9.16667 130.5,9.5C 131.11,8.60895 131.443,7.60895 131.5,6.5C 133.203,7.66015 133.869,6.99349 133.5,4.5C 134.5,4.5 135.5,4.5 136.5,4.5C 136.5,3.5 136.5,2.5 136.5,1.5C 137.833,1.5 139.167,1.5 140.5,1.5C 140.5,2.5 140.5,3.5 140.5,4.5C 141.833,4.5 143.167,4.5 144.5,4.5C 144.5,5.83333 144.5,7.16667 144.5,8.5C 143.167,8.5 141.833,8.5 140.5,8.5C 140.5,11.5 140.5,14.5 140.5,17.5C 142.167,17.5 143.833,17.5 145.5,17.5 Z"/></g>
<g><path style="opacity:0.818" fill="#f67200" d="M 91.5,3.5 C 91.5,4.16667 91.5,4.83333 91.5,5.5C 90.6168,8.29656 90.6168,10.9632 91.5,13.5C 88.0147,11.8473 85.3481,9.3473 83.5,6C 83.6448,5.22797 83.9781,4.5613 84.5,4C 86.8098,3.50335 89.1432,3.33669 91.5,3.5 Z"/></g>
<g><path style="opacity:0.813" fill="#231e1f" d="M 38.5,25.5 C 37.1667,25.5 35.8333,25.5 34.5,25.5C 34.5,18.5 34.5,11.5 34.5,4.5C 38.1269,5.35773 41.7935,5.5244 45.5,5C 48.2317,5.39806 50.065,6.89806 51,9.5C 52.3099,19.1954 48.3099,22.862 39,20.5C 38.5065,22.1341 38.3398,23.8008 38.5,25.5 Z M 40.5,8.5 C 46.9889,8.15625 48.9889,10.9896 46.5,17C 38.3894,18.5449 36.3894,15.7116 40.5,8.5 Z"/></g>
<g><path style="opacity:0.782" fill="#231f20" d="M 62.5,8.5 C 60.4176,8.47199 58.5843,9.13865 57,10.5C 56.5014,14.1516 56.3347,17.8183 56.5,21.5C 55.1667,21.5 53.8333,21.5 52.5,21.5C 52.5,15.8333 52.5,10.1667 52.5,4.5C 54.451,4.22672 55.951,4.89339 57,6.5C 58.5843,5.13865 60.4176,4.47199 62.5,4.5C 62.5,5.83333 62.5,7.16667 62.5,8.5 Z"/></g>
<g><path style="opacity:0.875" fill="#231e1f" d="M 62.5,8.5 C 66.1322,4.27251 70.2989,3.60584 75,6.5C 75.7096,5.02674 76.8762,4.36007 78.5,4.5C 78.5,10.1667 78.5,15.8333 78.5,21.5C 73.813,21.7038 69.1463,21.2038 64.5,20C 61.4081,16.6165 60.7415,12.7832 62.5,8.5 Z M 67.5,8.5 C 73.842,8.13854 75.842,10.9719 73.5,17C 65.749,18.0913 63.749,15.258 67.5,8.5 Z"/></g>
<g><path style="opacity:0.818" fill="#231e1f" d="M 131.5,6.5 C 131.443,7.60895 131.11,8.60895 130.5,9.5C 127.823,8.38555 125.156,8.38555 122.5,9.5C 125.833,10.6667 129.167,11.8333 132.5,13C 135.198,19.0094 133.031,21.8427 126,21.5C 122.302,21.9 119.469,20.5667 117.5,17.5C 121.455,17.4797 125.455,17.1464 129.5,16.5C 126.177,15.1678 122.843,13.8345 119.5,12.5C 117.864,8.90249 118.864,6.40249 122.5,5C 125.741,4.20686 128.741,4.70686 131.5,6.5 Z"/></g>
<g><path style="opacity:0.76" fill="#231e20" d="M 162.5,4.5 C 164.451,4.22672 165.951,4.89339 167,6.5C 168.897,4.98368 171.064,4.31701 173.5,4.5C 173.5,5.83333 173.5,7.16667 173.5,8.5C 170.675,8.08073 168.509,9.08073 167,11.5C 166.502,14.8168 166.335,18.1501 166.5,21.5C 165.167,21.5 163.833,21.5 162.5,21.5C 162.5,15.8333 162.5,10.1667 162.5,4.5 Z"/></g>
<g><path style="opacity:0.699" fill="#231e20" d="M 175.5,4.5 C 176.167,5.83333 176.833,5.83333 177.5,4.5C 178.489,9.97533 178.822,15.642 178.5,21.5C 177.167,21.5 175.833,21.5 174.5,21.5C 174.178,15.642 174.511,9.97533 175.5,4.5 Z"/></g>
<g><path style="opacity:0.935" fill="#221f1f" d="M 196.5,4.5 C 196.5,10.1667 196.5,15.8333 196.5,21.5C 192.592,21.1618 188.592,20.9952 184.5,21C 179.931,18.4586 178.431,14.6253 180,9.5C 183.492,4.40352 187.825,3.40352 193,6.5C 193.71,5.02674 194.876,4.36007 196.5,4.5 Z M 185.5,8.5 C 191.989,8.15625 193.989,10.9896 191.5,17C 183.749,18.0913 181.749,15.258 185.5,8.5 Z"/></g>
<g><path style="opacity:0.874" fill="#231e1f" d="M 145.5,17.5 C 143.393,11.8744 145.06,7.70769 150.5,5C 158.019,3.6848 161.686,6.85147 161.5,14.5C 157.154,14.3343 152.821,14.501 148.5,15C 149.167,15.6667 149.833,16.3333 150.5,17C 153.94,17.1784 157.273,17.3451 160.5,17.5C 160.833,17.8333 161.167,18.1667 161.5,18.5C 158.03,21.3941 154.03,22.2274 149.5,21C 147.65,20.3103 146.316,19.1436 145.5,17.5 Z M 150.5,8.5 C 153.346,8.03008 155.679,8.86341 157.5,11C 154.5,11.6667 151.5,11.6667 148.5,11C 149.381,10.2917 150.047,9.45837 150.5,8.5 Z"/></g>
<g><path style="opacity:0.918" fill="#221e1f" d="M 16.5,15.5 C 16.9382,15.5654 17.2716,15.3988 17.5,15C 16.9341,14.0053 16.2674,13.172 15.5,12.5C 18.6309,4.62206 23.9642,2.78872 31.5,7C 35.7325,17.7731 32.0659,22.4397 20.5,21C 17.7854,20.1253 16.4521,18.2919 16.5,15.5 Z M 22.5,8.5 C 28.9889,8.15625 30.9889,10.9896 28.5,17C 22.021,19.1681 19.1877,17.0014 20,10.5C 20.9947,9.93406 21.828,9.26739 22.5,8.5 Z"/></g>
<g><path style="opacity:0.819" fill="#f67100" d="M 105.5,22.5 C 105.5,21.8333 105.5,21.1667 105.5,20.5C 108.276,17.4898 107.942,14.6565 104.5,12C 109.09,12.3125 112.423,14.6458 114.5,19C 114.18,20.6532 113.18,21.6532 111.5,22C 109.398,21.744 107.398,21.9107 105.5,22.5 Z"/></g>
<g><path style="opacity:0.935" fill="#de1722" d="M 105.5,20.5 C 105.5,21.1667 105.5,21.8333 105.5,22.5C 100.296,24.2536 94.9631,24.7536 89.5,24C 83.948,21.1406 83.448,17.974 88,14.5C 94.005,16.0902 99.8384,18.0902 105.5,20.5 Z"/></g>
<g><path style="opacity:0.912" fill="#231e1f" d="M 15.5,12.5 C 16.2674,13.172 16.9341,14.0053 17.5,15C 17.2716,15.3988 16.9382,15.5654 16.5,15.5C 15.802,17.6669 14.4687,19.5002 12.5,21C 7.90887,21.9423 3.57554,21.4423 -0.5,19.5C -0.5,18.5 -0.5,17.5 -0.5,16.5C 3.52068,17.5051 7.52068,17.5051 11.5,16.5C 7.24546,15.3249 3.24546,13.6582 -0.5,11.5C -0.5,10.1667 -0.5,8.83333 -0.5,7.5C 4.82854,3.33454 9.82854,3.66788 14.5,8.5C 10.92,8.7423 7.25329,8.90897 3.5,9C 6.21038,10.7468 9.21038,11.7468 12.5,12C 13.9467,14.4903 14.9467,14.6569 15.5,12.5 Z"/></g>
</svg>
