<?xml version="1.0" encoding="UTF-8"?>
<!DOCTYPE svg PUBLIC "-//W3C//DTD SVG 1.1//EN" "http://www.w3.org/Graphics/SVG/1.1/DTD/svg11.dtd">
<svg xmlns="http://www.w3.org/2000/svg" version="1.1" width="2572px" height="1177px" style="shape-rendering:geometricPrecision; text-rendering:geometricPrecision; image-rendering:optimizeQuality; fill-rule:evenodd; clip-rule:evenodd" xmlns:xlink="http://www.w3.org/1999/xlink">
<g><path style="opacity:0.997" fill="#00335f" d="M -0.5,627.5 C -0.5,487.5 -0.5,347.5 -0.5,207.5C 88.8333,207.5 178.167,207.5 267.5,207.5C 267.333,343.834 267.5,480.167 268,616.5C 268.584,648.243 277.584,677.243 295,703.5C 317.493,730.572 346.493,743.572 382,742.5C 440.247,741.264 476.247,712.264 490,655.5C 492.566,644.637 494.233,633.637 495,622.5C 495.5,484.167 495.667,345.834 495.5,207.5C 585.167,207.5 674.833,207.5 764.5,207.5C 764.333,276.167 764.5,344.834 765,413.5C 800.252,311.248 869.418,243.748 972.5,211C 1027.4,195.27 1083.4,188.603 1140.5,191C 1196.04,191.757 1249.71,202.09 1301.5,222C 1378.85,254.688 1434.35,309.521 1468,386.5C 1491.67,445.839 1503.67,507.505 1504,571.5C 1504.5,705.166 1504.67,838.833 1504.5,972.5C 1414.83,972.5 1325.17,972.5 1235.5,972.5C 1235.67,834.5 1235.5,696.5 1235,558.5C 1233.77,528.487 1224.77,501.154 1208,476.5C 1192.07,456.78 1171.57,444.613 1146.5,440C 1074.15,429.73 1029.32,459.897 1012,530.5C 1010.01,541.085 1008.68,551.751 1008,562.5C 1007.5,699.166 1007.33,835.833 1007.5,972.5C 918.167,972.5 828.833,972.5 739.5,972.5C 739.667,903.166 739.5,833.833 739,764.5C 699.338,878.825 620.504,949.658 502.5,977C 437.294,990.493 371.628,993.159 305.5,985C 135.667,960.501 36.1669,863.668 7,694.5C 3.64184,672.109 1.14184,649.775 -0.5,627.5 Z"/></g>
<g><path style="opacity:0.996" fill="#30b9bb" d="M 2571.5,698.5 C 2571.5,717.833 2571.5,737.167 2571.5,756.5C 2564.28,826.786 2531.95,882.286 2474.5,923C 2429.94,953.087 2380.94,972.42 2327.5,981C 2242.53,994.908 2158.2,991.908 2074.5,972C 2028.1,960.221 1985.77,940.221 1947.5,912C 1896.78,867.756 1865.28,812.256 1853,745.5C 1850.73,734.562 1848.9,723.562 1847.5,712.5C 1936.83,712.5 2026.17,712.5 2115.5,712.5C 2122.87,741.701 2141.2,760.201 2170.5,768C 2198.09,774.964 2225.75,775.631 2253.5,770C 2261.68,767.803 2268.18,763.303 2273,756.5C 2277.73,746.253 2275.9,737.419 2267.5,730C 2258.72,723.78 2249.06,719.447 2238.5,717C 2177.19,700.755 2116.19,683.422 2055.5,665C 2017.99,652.581 1983.33,634.914 1951.5,612C 1907.62,578.083 1883.79,533.25 1880,477.5C 1872.29,352.036 1926.45,265.87 2042.5,219C 2107.5,195.499 2174.5,186.499 2243.5,192C 2311.19,197.011 2375.19,215.011 2435.5,246C 2497.57,284.561 2536.74,339.727 2553,411.5C 2556.36,426.001 2558.53,440.668 2559.5,455.5C 2470.17,455.667 2380.83,455.5 2291.5,455C 2276.13,411.805 2245.8,394.805 2200.5,404C 2179.05,409.082 2171.88,421.915 2179,442.5C 2184.01,448.589 2190.18,453.089 2197.5,456C 2252.37,471.134 2307.37,485.801 2362.5,500C 2415.88,513.861 2464.22,537.528 2507.5,571C 2533.51,592.835 2551.68,620.002 2562,652.5C 2566.28,667.746 2569.45,683.079 2571.5,698.5 Z"/></g>
<g><path style="opacity:0.997" fill="#30b9bb" d="M 1561.5,207.5 C 1649.5,207.5 1737.5,207.5 1825.5,207.5C 1825.5,462.5 1825.5,717.5 1825.5,972.5C 1737.5,972.5 1649.5,972.5 1561.5,972.5C 1561.5,717.5 1561.5,462.5 1561.5,207.5 Z"/></g>
</svg>
